<?xml version="1.0" encoding="utf-8"?>
<!-- Generator: Adobe Illustrator 16.0.0, SVG Export Plug-In . SVG Version: 6.00 Build 0)  -->
<!DOCTYPE svg PUBLIC "-//W3C//DTD SVG 1.1//EN" "http://www.w3.org/Graphics/SVG/1.1/DTD/svg11.dtd">
<svg version="1.1" id="Layer_1" xmlns="http://www.w3.org/2000/svg" xmlns:xlink="http://www.w3.org/1999/xlink" x="0px" y="0px"
	 width="400px" height="950.5px" viewBox="0 0 400 950.5" enable-background="new 0 0 400 950.5" xml:space="preserve">
<path fill="#808080" d="M13.586,11.843L11.15,9.364c-0.044-0.041-0.09-0.074-0.134-0.107c0.611-0.939,0.971-2.058,0.971-3.263
	C11.988,2.684,9.306,0,5.993,0C2.682,0,0,2.684,0,5.994s2.682,5.994,5.993,5.994c1.199,0,2.32-0.357,3.267-0.971
	c0.032,0.047,0.064,0.092,0.105,0.133l2.434,2.479C12.047,13.875,12.369,14,12.691,14c0.322,0,0.646-0.125,0.896-0.371
	C14.077,13.136,14.077,12.337,13.586,11.843z M5.993,10.095c-2.266,0-4.104-1.84-4.104-4.101c0-2.262,1.841-4.102,4.104-4.102
	c2.26,0,4.102,1.84,4.102,4.102C10.095,8.255,8.253,10.095,5.993,10.095z"/>
<g>
	<path fill="#808080" d="M65.221,14.251H50.014c0-0.299-0.014-0.598-0.014-0.897c0-0.058,0-0.428,0.014-0.527
		c0.484-2.066,4.318-1.981,5.672-3.563c0.146-0.186,0.242-0.285,0.242-0.541c0-0.342-0.086-0.713-0.156-1.041
		c-0.129-0.67-0.371-0.869-0.598-1.439c-0.258-0.584-0.357-1.254-0.471-1.881c-0.062-0.356-0.086-0.712-0.086-1.069
		C54.617,1.368,55.586,0,57.625,0c2.037,0,3.006,1.368,3.006,3.292c0,0.356-0.043,0.713-0.104,1.069
		c-0.1,0.627-0.213,1.297-0.45,1.881c-0.242,0.57-0.476,0.769-0.604,1.439c-0.07,0.328-0.156,0.699-0.156,1.041
		c0,0.256,0.086,0.355,0.242,0.541c1.354,1.582,5.174,1.497,5.658,3.563c0.027,0.114,0.027,0.47,0.027,0.527
		C65.248,13.654,65.234,13.953,65.221,14.251z"/>
</g>
<g>
	<path fill="#B6956A" d="M103.924,1.121c0.113-0.535,0.363-1.01,1.047-1.01h0.996c0.584,0,0.91,0.338,1.041,0.902
		c0.088,0.383,0.141,0.986,0.141,1.934v1.896l-3.338,8.453V2.947C103.811,2,103.832,1.551,103.924,1.121 M109.473,1.121
		c0.113-0.535,0.363-1.01,1.047-1.01h2.188c0.617,0,1.52,0.344,0.994,2.055c-0.191,0.621-0.263,0.783-0.263,0.783l-4.084,10.35
		V2.947C109.359,2.17,109.383,1.551,109.473,1.121 M100.068,0L100,0.111h0.418c0.584,0,0.91,0.338,1.039,0.902
		c0.088,0.383,0.141,0.986,0.141,1.934v16.32l5.551-14.053v14.053l6.859-17.373c0.555-1.268,1.252-1.807,2.281-1.783L116.355,0
		H100.068z"/>
</g>
<g>
	<path fill="#FFFFFF" d="M153.924,1.121c0.113-0.535,0.363-1.01,1.047-1.01h0.996c0.584,0,0.91,0.338,1.041,0.902
		c0.088,0.383,0.141,0.986,0.141,1.934v1.896l-3.338,8.453V2.947C153.811,2,153.832,1.551,153.924,1.121 M159.473,1.121
		c0.113-0.535,0.363-1.01,1.047-1.01h2.188c0.617,0,1.52,0.344,0.994,2.055c-0.191,0.621-0.263,0.783-0.263,0.783l-4.084,10.35
		V2.947C159.359,2.17,159.383,1.551,159.473,1.121 M150.068,0L150,0.111h0.418c0.584,0,0.91,0.338,1.039,0.902
		c0.088,0.383,0.141,0.986,0.141,1.934v16.32l5.551-14.053v14.053l6.859-17.373c0.555-1.268,1.252-1.807,2.281-1.783L166.355,0
		H150.068z"/>
</g>
<g>
	<g>
		<path fill="#808080" d="M71.463,100c-4.68,0-8.471,3.751-8.471,8.388c0,3.433,2.084,6.384,5.063,7.679
			c-0.021-0.586-0.004-1.291,0.148-1.928c0.162-0.682,1.09-4.568,1.09-4.568s-0.271-0.538-0.271-1.325
			c0-1.245,0.729-2.173,1.642-2.173c0.77,0,1.143,0.574,1.143,1.258c0,0.768-0.496,1.916-0.748,2.979
			c-0.213,0.889,0.453,1.613,1.338,1.613c1.604,0,2.688-2.038,2.688-4.459c0-1.836-1.25-3.212-3.525-3.212
			c-2.57,0-4.172,1.896-4.172,4.013c0,0.732,0.219,1.25,0.559,1.647c0.154,0.183,0.181,0.257,0.119,0.468
			c-0.039,0.157-0.131,0.525-0.174,0.674c-0.055,0.214-0.227,0.289-0.422,0.209c-1.182-0.479-1.734-1.759-1.734-3.203
			c0-2.383,2.033-5.24,6.062-5.24c3.229,0,5.356,2.317,5.356,4.807c0,3.292-1.846,5.746-4.567,5.746
			c-0.914,0-1.775-0.492-2.068-1.047c0,0-0.494,1.932-0.6,2.309c-0.183,0.646-0.529,1.291-0.854,1.795
			c0.767,0.222,1.566,0.344,2.4,0.344c4.68,0,8.479-3.755,8.479-8.384C79.941,103.751,76.143,100,71.463,100z"/>
	</g>
</g>
<path fill="#808080" d="M8.092,100.273l-0.047,2.682c0,0-1.549,0.016-1.789,0.016c-0.271,0-0.555,0.212-0.584,0.763
	c-0.027,0.554-0.027,1.6-0.027,1.6l2.418,0.442l-0.271,3.112H5.455v7.638H2.184v-7.638H0v-3.271h2.184v-2.241
	c0,0,0.08-1.007,0.496-1.664c0.408-0.648,0.896-1.117,1.938-1.33C5.658,100.164,8.092,100.273,8.092,100.273"/>
<g>
	<g>
		<path fill="#808080" d="M108.652,115.055c0,0.301-1.08,0.51-1.602,0.63s-1.01,0.182-1.619,0.182c-0.688,0-1.057-0.085-1.584-0.257
			c-0.527-0.173-0.963-0.418-1.332-0.732c-0.375-0.32-0.715-0.657-0.859-1.014c-0.143-0.363-0.299-0.88-0.299-1.56v-5.143h-2.084
			v-2.176c0-0.196,1.392-0.465,1.81-0.823c0.424-0.354,0.813-0.82,1.071-1.316c0.252-0.496,0.486-1.939,0.58-1.939h1.75v3.126h4.168
			v3.129h-4.168v3.741c0,0.859,0.188,1.359,0.277,1.604c0.092,0.242,0.418,0.498,0.666,0.645c0.332,0.195,0.619,0.295,1.049,0.295
			c0.76,0,2.176-0.245,2.176-0.734V115.055z"/>
	</g>
</g>
<path fill="#808080" d="M43.658,103.35c-0.601,0.267-1.238,0.447-1.912,0.525c0.686-0.409,1.217-1.066,1.465-1.843
	c-0.646,0.382-1.357,0.657-2.117,0.81c-0.604-0.648-1.473-1.055-2.432-1.055c-1.838,0-3.33,1.494-3.33,3.333
	c0,0.264,0.024,0.517,0.088,0.759c-2.771-0.139-5.228-1.462-6.865-3.478c-0.289,0.489-0.453,1.064-0.453,1.673
	c0,1.154,0.695,2.174,1.592,2.773c-0.549-0.02-1.396-0.165-1.396-0.418c0,0.016,0,0.029,0,0.043c0,1.611,1.037,2.96,2.562,3.266
	c-0.276,0.076-0.629,0.115-0.932,0.115c-0.219,0-0.453-0.019-0.656-0.061c0.427,1.325,1.646,2.29,3.104,2.314
	c-1.146,0.896-2.586,1.425-4.146,1.425c-0.266,0-0.535-0.015-0.797-0.046c1.477,0.95,3.229,1.499,5.105,1.499
	c6.127,0,9.475-5.077,9.475-9.479c0-0.143-0.004-0.286-0.008-0.432C42.648,104.605,43.211,104.021,43.658,103.35z"/>
<g>
	
		<linearGradient id="SVGID_1_" gradientUnits="userSpaceOnUse" x1="1014.3594" y1="-817.5186" x2="1020.251" y2="-817.5186" gradientTransform="matrix(1 0 0 1 -1013.2988 986.2734)">
		<stop  offset="0" style="stop-color:#B6956A"/>
		<stop  offset="1" style="stop-color:#B6956A;stop-opacity:0.8"/>
	</linearGradient>
	<path fill="url(#SVGID_1_)" d="M6.952,162.476l-0.037,2.168c0,0-1.24,0.015-1.438,0.015c-0.216,0-0.439,0.169-0.467,0.616
		c-0.021,0.45-0.021,1.293-0.021,1.293l1.936,0.021l-0.22,2.179h-1.73v6.287H2.377v-6.309H1.061v-2.157h1.295v-1.604
		c0,0,0-0.813,0.331-1.345c0.326-0.528,0.685-0.901,1.521-1.076C5.04,162.388,6.952,162.476,6.952,162.476"/>
</g>
<linearGradient id="rect4122_4_" gradientUnits="userSpaceOnUse" x1="1077.9492" y1="-817.5195" x2="1090.5488" y2="-817.5195" gradientTransform="matrix(1 0 0 1 -1013.2988 986.2734)">
	<stop  offset="0" style="stop-color:#B6956A"/>
	<stop  offset="1" style="stop-color:#B6956A;stop-opacity:0.8"/>
</linearGradient>
<path id="rect4122_3_" fill="url(#rect4122_4_)" d="M66.682,162.454c-1.127,0-2.032,0.904-2.032,2.031v8.538
	c0,1.128,0.905,2.031,2.032,2.031h8.538c1.126,0,2.03-0.903,2.03-2.031v-8.538c0-1.127-0.904-2.031-2.03-2.031H66.682z
	 M73.459,163.869h1.916c0.253,0,0.461,0.208,0.461,0.461v1.916c0,0.254-0.208,0.46-0.461,0.46h-1.916
	c-0.253,0-0.459-0.207-0.459-0.46v-1.916C73,164.076,73.206,163.869,73.459,163.869z M70.952,166.354
	c1.421,0,2.555,1.142,2.555,2.56c0,1.417-1.134,2.552-2.555,2.552c-1.417,0-2.562-1.135-2.562-2.552
	C68.389,167.495,69.535,166.354,70.952,166.354z M65.702,167.912h1.752c-0.096,0.317-0.146,0.655-0.146,1.001
	c0,2.005,1.644,3.635,3.646,3.635c2.006,0,3.639-1.63,3.639-3.635c0-0.347-0.058-0.684-0.149-1.001h1.765v4.935
	c0,0.756-0.61,1.368-1.367,1.368h-7.773c-0.754,0-1.354-0.612-1.354-1.368v-4.935H65.702z"/>
<linearGradient id="path3930_5_" gradientUnits="userSpaceOnUse" x1="1141.082" y1="-817.5225" x2="1155.8916" y2="-817.5225" gradientTransform="matrix(1 0 0 1 -1013.2988 986.2734)">
	<stop  offset="0" style="stop-color:#B6956A"/>
	<stop  offset="1" style="stop-color:#B6956A;stop-opacity:0.8"/>
</linearGradient>
<path id="path3930_1_" fill="url(#path3930_5_)" d="M132.979,162.004c-0.479,0-1.014,0.062-1.58,0.179
	c-0.556,0.118-1.086,0.384-1.594,0.797c-0.378,0.33-0.659,0.706-0.848,1.131c-0.189,0.413-0.283,0.827-0.283,1.24
	c0,0.342,0.062,0.686,0.192,1.028c0.13,0.33,0.312,0.627,0.562,0.887c0.249,0.26,0.562,0.47,0.926,0.636
	c0.366,0.153,0.781,0.231,1.253,0.231h0.282c0.095-0.012,0.195-0.027,0.289-0.039c-0.047,0.105-0.093,0.215-0.128,0.321
	c-0.035,0.093-0.052,0.218-0.052,0.372c0,0.272,0.054,0.498,0.161,0.688c0.113,0.178,0.238,0.35,0.371,0.514
	c-0.199,0.013-0.44,0.035-0.717,0.059c-0.271,0.024-0.56,0.064-0.862,0.121c-0.312,0.06-0.62,0.138-0.938,0.232
	c-0.308,0.105-0.596,0.239-0.868,0.404c-0.519,0.307-0.871,0.666-1.06,1.066c-0.2,0.413-0.302,0.774-0.302,1.094
	c0,0.329,0.072,0.648,0.229,0.943c0.153,0.308,0.389,0.573,0.706,0.811c0.319,0.235,0.717,0.43,1.188,0.571
	c0.483,0.142,1.05,0.212,1.688,0.212c0.756,0,1.42-0.104,1.998-0.302c0.591-0.188,1.082-0.445,1.472-0.765
	c0.394-0.308,0.688-0.659,0.892-1.061c0.196-0.402,0.302-0.807,0.302-1.221c0-0.307-0.045-0.58-0.128-0.816
	c-0.083-0.236-0.193-0.447-0.335-0.637c-0.129-0.188-0.293-0.367-0.481-0.533c-0.178-0.164-0.354-0.329-0.547-0.494l-0.636-0.494
	c-0.1-0.082-0.195-0.184-0.303-0.29c-0.104-0.118-0.16-0.274-0.16-0.475s0.056-0.365,0.16-0.497
	c0.104-0.129,0.217-0.254,0.335-0.372c0.188-0.142,0.376-0.29,0.553-0.443c0.177-0.166,0.334-0.345,0.476-0.534
	c0.146-0.2,0.258-0.42,0.34-0.669c0.084-0.247,0.122-0.536,0.122-0.867c0-0.33-0.046-0.626-0.142-0.886
	c-0.093-0.259-0.21-0.486-0.34-0.676c-0.129-0.199-0.268-0.365-0.405-0.494c-0.142-0.141-0.267-0.259-0.372-0.34h1.1l1.136-0.636
	h-3.646v0.004H132.979L132.979,162.004z M139.43,162.229v2.319h-2.319v0.842h2.319v2.319h0.843v-2.319h2.32v-0.842h-2.32v-2.319
	H139.43z M131.862,162.589c0.365,0,0.688,0.116,0.957,0.341c0.283,0.213,0.521,0.479,0.706,0.81c0.189,0.331,0.33,0.688,0.43,1.066
	c0.095,0.379,0.142,0.723,0.142,1.042c0,0.166-0.023,0.375-0.071,0.623c-0.047,0.249-0.172,0.475-0.373,0.676
	c-0.142,0.142-0.316,0.258-0.546,0.354c-0.212,0.094-0.431,0.141-0.652,0.141c-0.379,0-0.704-0.109-0.987-0.321
	c-0.271-0.224-0.505-0.497-0.693-0.816c-0.178-0.319-0.311-0.656-0.403-1.022c-0.083-0.366-0.131-0.701-0.131-0.996
	c0-0.236,0.024-0.463,0.07-0.688c0.062-0.223,0.168-0.433,0.322-0.623c0.142-0.176,0.316-0.317,0.546-0.425
	C131.391,162.643,131.625,162.589,131.862,162.589z M132.478,170.493h0.25h0.213c0.062,0,0.122,0,0.193,0.012
	c0.33,0.236,0.618,0.455,0.866,0.643c0.249,0.189,0.451,0.369,0.604,0.547c0.153,0.178,0.271,0.357,0.341,0.533
	c0.082,0.189,0.122,0.394,0.122,0.617c0,0.555-0.227,1.008-0.675,1.361c-0.438,0.367-1.077,0.555-1.928,0.555
	c-0.956,0-1.721-0.203-2.288-0.604c-0.555-0.4-0.829-0.917-0.829-1.555c0-0.318,0.057-0.584,0.175-0.797
	c0.129-0.212,0.278-0.391,0.442-0.533c0.165-0.141,0.33-0.258,0.495-0.34c0.178-0.072,0.312-0.119,0.411-0.155
	c0.188-0.058,0.384-0.113,0.585-0.161c0.196-0.035,0.388-0.065,0.562-0.09C132.199,170.514,132.348,170.504,132.478,170.493
	L132.478,170.493z"/>
<path id="path3930_3_" fill="#808080" d="M132.072,102.357c-0.533,0-1.127,0.068-1.755,0.199c-0.613,0.131-1.207,0.426-1.771,0.885
	c-0.42,0.367-0.732,0.784-0.942,1.257c-0.21,0.458-0.312,0.918-0.312,1.377c0,0.38,0.064,0.762,0.213,1.143
	c0.145,0.366,0.352,0.696,0.628,0.985c0.276,0.289,0.622,0.522,1.029,0.707c0.401,0.169,0.862,0.256,1.392,0.256h0.313
	c0.104-0.014,0.217-0.03,0.316-0.043c-0.052,0.117-0.103,0.239-0.142,0.356c-0.039,0.104-0.062,0.243-0.062,0.414
	c0,0.302,0.062,0.553,0.184,0.764c0.131,0.198,0.27,0.389,0.415,0.571c-0.228,0.015-0.491,0.039-0.793,0.065
	c-0.307,0.027-0.623,0.071-0.964,0.135c-0.345,0.066-0.688,0.153-1.043,0.257c-0.345,0.117-0.66,0.266-0.967,0.449
	c-0.571,0.341-0.967,0.74-1.177,1.184c-0.223,0.459-0.336,0.86-0.336,1.216c0,0.365,0.086,0.72,0.256,1.047
	c0.17,0.342,0.438,0.636,0.785,0.901c0.354,0.261,0.797,0.478,1.32,0.634c0.539,0.158,1.164,0.236,1.872,0.236
	c0.84,0,1.575-0.115,2.22-0.336c0.657-0.208,1.202-0.494,1.636-0.85c0.437-0.342,0.762-0.732,0.985-1.179
	c0.224-0.447,0.336-0.897,0.336-1.356c0-0.341-0.05-0.644-0.146-0.906c-0.092-0.263-0.215-0.497-0.369-0.708
	c-0.146-0.208-0.324-0.408-0.533-0.592c-0.198-0.182-0.396-0.365-0.608-0.548l-0.706-0.549c-0.104-0.091-0.217-0.205-0.336-0.322
	c-0.117-0.131-0.179-0.304-0.179-0.528c0-0.223,0.062-0.405,0.179-0.552c0.118-0.143,0.24-0.282,0.371-0.413
	c0.209-0.158,0.417-0.322,0.614-0.493c0.193-0.185,0.371-0.383,0.524-0.593c0.157-0.223,0.286-0.467,0.378-0.744
	c0.097-0.274,0.14-0.595,0.14-0.963c0-0.367-0.053-0.695-0.158-0.985c-0.104-0.287-0.233-0.54-0.377-0.75
	c-0.146-0.221-0.292-0.406-0.45-0.549c-0.158-0.156-0.297-0.288-0.413-0.377h1.226l1.257-0.707h-4.047v0.005H132.072z
	 M139.238,102.606v2.577h-2.571v0.935h2.571v2.576h0.938v-2.576h2.577v-0.935h-2.577v-2.577H139.238z M130.831,103.007
	c0.401,0,0.762,0.128,1.062,0.378c0.315,0.237,0.577,0.532,0.785,0.9c0.21,0.368,0.367,0.765,0.472,1.184
	c0.106,0.421,0.158,0.804,0.158,1.158c0,0.185-0.021,0.417-0.079,0.692c-0.052,0.276-0.188,0.528-0.414,0.75
	c-0.153,0.158-0.354,0.287-0.604,0.394c-0.236,0.104-0.479,0.157-0.729,0.157c-0.419,0-0.785-0.121-1.099-0.356
	c-0.301-0.249-0.562-0.552-0.771-0.907c-0.193-0.354-0.346-0.729-0.445-1.136c-0.097-0.406-0.146-0.778-0.146-1.106
	c0-0.262,0.027-0.515,0.078-0.764c0.067-0.248,0.188-0.481,0.357-0.692c0.153-0.196,0.354-0.352,0.604-0.472
	C130.308,103.066,130.568,103.007,130.831,103.007z M131.516,111.787h0.278h0.231c0.065,0,0.141,0,0.219,0.014
	c0.362,0.262,0.687,0.505,0.962,0.714c0.271,0.21,0.5,0.41,0.671,0.608c0.169,0.198,0.301,0.396,0.378,0.592
	c0.091,0.21,0.136,0.438,0.136,0.686c0,0.616-0.252,1.12-0.75,1.512c-0.487,0.408-1.196,0.617-2.142,0.617
	c-1.062,0-1.912-0.226-2.542-0.672c-0.617-0.444-0.921-1.019-0.921-1.728c0-0.353,0.062-0.649,0.189-0.885
	c0.146-0.235,0.312-0.435,0.491-0.592c0.183-0.156,0.367-0.287,0.55-0.377c0.198-0.081,0.354-0.132,0.457-0.172
	c0.21-0.064,0.427-0.125,0.649-0.179c0.224-0.039,0.432-0.072,0.628-0.101C131.205,111.811,131.371,111.8,131.516,111.787
	L131.516,111.787z"/>
<g>
	<g>
		<path d="M271.464,100c-4.146,0-7.496,3.319-7.496,7.423c0,3.037,1.845,5.649,4.485,6.794c-0.021-0.518-0.01-1.142,0.13-1.706
			c0.144-0.604,0.965-4.042,0.965-4.042s-0.239-0.476-0.239-1.172c0-1.102,0.646-1.923,1.448-1.923c0.681,0,1.011,0.508,1.011,1.113
			c0,0.68-0.438,1.695-0.662,2.636c-0.188,0.787,0.401,1.427,1.188,1.427c1.418,0,2.377-1.803,2.377-3.946
			c0-1.625-1.104-2.842-3.119-2.842c-2.271,0-3.688,1.678-3.688,3.551c0,0.647,0.191,1.106,0.494,1.457
			c0.146,0.162,0.152,0.228,0.104,0.414c-0.034,0.139-0.114,0.465-0.149,0.597c-0.054,0.189-0.203,0.255-0.375,0.185
			c-1.047-0.424-1.533-1.557-1.533-2.834c0-2.109,1.812-4.637,5.357-4.637c2.861,0,4.744,2.051,4.744,4.254
			c0,2.913-1.634,5.084-4.046,5.084c-0.812,0-1.569-0.435-1.831-0.926c0,0-0.438,1.709-0.529,2.043
			c-0.154,0.572-0.469,1.143-0.752,1.589c0.678,0.196,1.389,0.304,2.123,0.304c4.146,0,7.504-3.323,7.504-7.419
			C278.966,103.319,275.604,100,271.464,100z"/>
	</g>
</g>
<path d="M206.546,100.269l-0.041,2.32c0,0-1.34,0.014-1.547,0.014c-0.235,0-0.479,0.183-0.506,0.66
	c-0.022,0.479-0.022,1.384-0.022,1.384l2.092,0.382l-0.229,2.692h-2.021v6.607h-2.83v-6.607h-1.892v-2.83h1.892v-1.939
	c0,0,0.066-0.871,0.438-1.439c0.354-0.561,0.771-0.966,1.679-1.151C204.439,100.175,206.546,100.269,206.546,100.269"/>
<g>
	<g>
		<path d="M307.963,113.975c0,0.256-0.921,0.435-1.367,0.537c-0.438,0.103-0.854,0.156-1.38,0.156c-0.587,0-0.896-0.073-1.354-0.22
			c-0.442-0.147-0.812-0.356-1.135-0.625c-0.314-0.272-0.604-0.56-0.729-0.864c-0.119-0.31-0.257-0.751-0.257-1.331v-4.387h-1.771
			v-1.856c0-0.167,1.188-0.396,1.538-0.702c0.354-0.302,0.693-0.7,0.918-1.123c0.218-0.423,0.415-1.654,0.492-1.654h1.49v2.667
			h3.561v2.669h-3.561v3.19c0,0.733,0.151,1.159,0.229,1.368c0.074,0.207,0.354,0.425,0.562,0.55
			c0.28,0.167,0.521,0.251,0.896,0.251c0.646,0,1.854-0.208,1.854-0.626L307.963,113.975L307.963,113.975z"/>
	</g>
</g>
<g>
	<g>
		<path fill="#FFFFFF" d="M276.297,171.308c0,0.256-0.921,0.435-1.367,0.537c-0.441,0.104-0.854,0.156-1.38,0.156
			c-0.587,0-0.897-0.073-1.354-0.22c-0.441-0.147-0.812-0.356-1.135-0.625c-0.313-0.272-0.604-0.56-0.729-0.864
			c-0.119-0.31-0.257-0.751-0.257-1.331v-4.387h-1.771v-1.856c0-0.167,1.188-0.396,1.536-0.702c0.354-0.302,0.693-0.7,0.918-1.123
			c0.22-0.423,0.415-1.654,0.492-1.654h1.49v2.667h3.562v2.669h-3.562v3.19c0,0.733,0.151,1.159,0.229,1.368
			c0.075,0.207,0.354,0.425,0.562,0.55c0.28,0.167,0.522,0.251,0.896,0.251c0.646,0,1.854-0.208,1.854-0.626L276.297,171.308
			L276.297,171.308z"/>
	</g>
</g>
<path d="M243.543,103.135c-0.52,0.23-1.068,0.385-1.648,0.453c0.592-0.353,1.049-0.919,1.271-1.589
	c-0.562,0.33-1.184,0.566-1.826,0.698c-0.521-0.559-1.271-0.91-2.104-0.91c-1.586,0-2.873,1.289-2.873,2.875
	c0,0.228,0.025,0.446,0.076,0.654c-2.396-0.12-4.506-1.261-5.922-3c-0.25,0.422-0.396,0.918-0.396,1.443
	c0,0.996,0.604,1.875,1.373,2.392c-0.479-0.017-1.207-0.143-1.207-0.361c0,0.014,0,0.025,0,0.037c0,1.39,0.896,2.553,2.21,2.817
	c-0.242,0.066-0.543,0.1-0.812,0.1c-0.188,0-0.396-0.017-0.562-0.053c0.367,1.143,1.42,1.976,2.68,1.996
	c-0.979,0.773-2.229,1.229-3.576,1.229c-0.229,0-0.461-0.013-0.688-0.04c1.271,0.819,2.779,1.293,4.396,1.293
	c5.285,0,8.178-4.379,8.178-8.176c0-0.124-0.004-0.247-0.012-0.373C242.672,104.218,243.157,103.714,243.543,103.135z"/>
<path id="path3930_4_" d="M332.284,102.356c-0.486,0-1.022,0.062-1.604,0.181c-0.562,0.12-1.104,0.389-1.612,0.808
	c-0.386,0.334-0.666,0.715-0.854,1.146c-0.188,0.417-0.286,0.837-0.286,1.255c0,0.347,0.062,0.695,0.188,1.042
	c0.139,0.334,0.317,0.635,0.569,0.898s0.562,0.477,0.938,0.645c0.367,0.154,0.79,0.234,1.271,0.234h0.28
	c0.104-0.013,0.192-0.028,0.298-0.04c-0.057,0.106-0.104,0.218-0.139,0.325c-0.027,0.094-0.057,0.221-0.057,0.377
	c0,0.275,0.061,0.504,0.157,0.697c0.119,0.18,0.244,0.354,0.38,0.521c-0.197,0.013-0.439,0.035-0.729,0.06
	c-0.271,0.025-0.562,0.065-0.879,0.123c-0.312,0.061-0.629,0.14-0.949,0.235c-0.312,0.106-0.604,0.242-0.881,0.409
	c-0.521,0.311-0.886,0.675-1.069,1.08c-0.2,0.419-0.31,0.784-0.31,1.109c0,0.333,0.073,0.656,0.229,0.955
	c0.155,0.312,0.396,0.58,0.726,0.821c0.313,0.238,0.729,0.436,1.199,0.579c0.487,0.144,1.062,0.215,1.702,0.215
	c0.771,0,1.438-0.104,2.022-0.306c0.603-0.19,1.097-0.451,1.479-0.775c0.396-0.312,0.689-0.667,0.896-1.075
	c0.203-0.407,0.311-0.818,0.311-1.237c0-0.312-0.047-0.587-0.131-0.827c-0.088-0.24-0.188-0.453-0.342-0.646
	c-0.131-0.19-0.297-0.372-0.484-0.54c-0.184-0.166-0.354-0.333-0.557-0.5l-0.646-0.5c-0.104-0.083-0.194-0.187-0.312-0.294
	c-0.104-0.12-0.163-0.277-0.163-0.481c0-0.203,0.062-0.37,0.163-0.503c0.104-0.13,0.229-0.257,0.341-0.376
	c0.188-0.144,0.39-0.293,0.562-0.449c0.18-0.168,0.338-0.349,0.479-0.541c0.146-0.203,0.271-0.426,0.354-0.678
	c0.087-0.25,0.125-0.542,0.125-0.878c0-0.334-0.058-0.634-0.146-0.898c-0.097-0.262-0.214-0.492-0.347-0.685
	c-0.131-0.202-0.271-0.37-0.41-0.5c-0.146-0.142-0.271-0.262-0.377-0.344h1.112l1.146-0.645h-3.688v0.003H332.284L332.284,102.356z
	 M338.823,102.584v2.35h-2.354v0.853h2.354v2.35h0.854v-2.35h2.354v-0.853h-2.354v-2.35H338.823z M331.156,102.949
	c0.369,0,0.688,0.117,0.976,0.345c0.281,0.216,0.521,0.485,0.716,0.82c0.188,0.335,0.334,0.697,0.438,1.08
	c0.104,0.384,0.146,0.733,0.146,1.056c0,0.168-0.021,0.38-0.065,0.631c-0.049,0.252-0.179,0.481-0.379,0.684
	c-0.146,0.144-0.321,0.262-0.56,0.359c-0.221,0.095-0.438,0.143-0.662,0.143c-0.386,0-0.72-0.11-1.002-0.325
	c-0.271-0.227-0.519-0.503-0.699-0.827c-0.188-0.323-0.312-0.665-0.409-1.036c-0.084-0.371-0.129-0.71-0.129-1.009
	c0-0.239,0.021-0.469,0.062-0.697c0.062-0.226,0.175-0.439,0.325-0.631c0.146-0.178,0.317-0.321,0.561-0.431
	C330.68,103.003,330.912,102.949,331.156,102.949z M331.781,110.956h0.253h0.215c0.062,0,0.125,0,0.196,0.012
	c0.334,0.239,0.625,0.46,0.878,0.651c0.251,0.192,0.456,0.374,0.604,0.555c0.146,0.18,0.271,0.361,0.353,0.54
	c0.084,0.191,0.123,0.399,0.123,0.625c0,0.562-0.229,1.021-0.688,1.379c-0.438,0.372-1.096,0.562-1.953,0.562
	c-0.974,0-1.734-0.206-2.312-0.613c-0.562-0.405-0.84-0.929-0.84-1.575c0-0.322,0.062-0.592,0.178-0.807
	c0.136-0.215,0.281-0.396,0.447-0.54c0.166-0.143,0.334-0.262,0.5-0.344c0.183-0.074,0.312-0.121,0.416-0.157
	c0.188-0.059,0.392-0.115,0.595-0.163c0.202-0.036,0.396-0.066,0.571-0.092C331.493,110.977,331.648,110.967,331.781,110.956
	L331.781,110.956z"/>
<g>
	<path fill="#FFFFFF" d="M243.667,159.131l-0.042,2.409c0,0-1.378,0.017-1.591,0.017c-0.24,0-0.494,0.188-0.521,0.684
		c-0.021,0.5-0.021,1.437-0.021,1.437l2.146,0.023l-0.246,2.421h-1.934v6.985h-2.896v-7.009H237.1v-2.396h1.438v-1.782
		c0,0,0-0.903,0.362-1.494c0.354-0.586,0.76-1.001,1.688-1.196C241.542,159.034,243.667,159.131,243.667,159.131"/>
</g>
<path id="rect4122_1_" fill="#FFFFFF" d="M293.042,159.107c-1.127,0-2.032,0.904-2.032,2.031v8.538c0,1.128,0.905,2.031,2.032,2.031
	h8.533c1.126,0,2.026-0.903,2.026-2.031v-8.538c0-1.127-0.9-2.031-2.026-2.031H293.042z M299.818,160.522h1.916
	c0.252,0,0.461,0.208,0.461,0.461v1.916c0,0.254-0.209,0.46-0.461,0.46h-1.916c-0.254,0-0.459-0.207-0.459-0.46v-1.916
	C299.359,160.729,299.564,160.522,299.818,160.522z M297.312,163.007c1.42,0,2.556,1.142,2.556,2.56
	c0,1.417-1.136,2.552-2.556,2.552c-1.418,0-2.562-1.135-2.562-2.552C294.749,164.148,295.895,163.007,297.312,163.007z
	 M292.062,164.565h1.752c-0.092,0.317-0.146,0.655-0.146,1.001c0,2.005,1.643,3.635,3.645,3.635c2.011,0,3.646-1.63,3.646-3.635
	c0-0.347-0.062-0.684-0.146-1.001h1.771v4.935c0,0.756-0.604,1.368-1.364,1.368h-7.771c-0.755,0-1.354-0.612-1.354-1.368v-4.935
	H292.062z"/>
<path id="path3930_2_" fill="#FFFFFF" d="M328.846,158.657c-0.479,0-1.02,0.062-1.58,0.179c-0.557,0.118-1.086,0.384-1.595,0.797
	c-0.378,0.33-0.659,0.706-0.854,1.131c-0.188,0.413-0.279,0.827-0.279,1.24c0,0.342,0.062,0.686,0.188,1.028
	c0.134,0.33,0.312,0.627,0.562,0.887s0.562,0.47,0.93,0.636c0.362,0.153,0.777,0.231,1.256,0.231h0.278
	c0.099-0.012,0.188-0.027,0.286-0.039c-0.049,0.105-0.098,0.215-0.129,0.321c-0.032,0.093-0.06,0.218-0.06,0.372
	c0,0.272,0.062,0.498,0.16,0.688c0.11,0.178,0.235,0.35,0.372,0.514c-0.195,0.013-0.438,0.035-0.721,0.059
	c-0.271,0.024-0.562,0.064-0.86,0.121c-0.312,0.06-0.614,0.138-0.938,0.232c-0.312,0.105-0.602,0.239-0.864,0.404
	c-0.521,0.307-0.87,0.666-1.062,1.066c-0.196,0.413-0.311,0.774-0.311,1.094c0,0.329,0.074,0.648,0.229,0.943
	c0.151,0.308,0.396,0.573,0.707,0.811c0.313,0.235,0.718,0.43,1.188,0.571c0.479,0.142,1.053,0.212,1.688,0.212
	c0.761,0,1.425-0.104,1.998-0.302c0.596-0.188,1.082-0.445,1.479-0.765c0.396-0.308,0.688-0.659,0.896-1.061
	c0.191-0.402,0.308-0.807,0.308-1.221c0-0.307-0.046-0.58-0.13-0.816c-0.081-0.236-0.188-0.447-0.336-0.637
	c-0.133-0.188-0.295-0.367-0.479-0.533c-0.183-0.164-0.354-0.329-0.548-0.494l-0.642-0.494c-0.101-0.082-0.188-0.184-0.308-0.29
	c-0.104-0.118-0.157-0.274-0.157-0.475c0-0.201,0.061-0.365,0.157-0.497c0.104-0.129,0.222-0.254,0.334-0.372
	c0.188-0.142,0.375-0.29,0.561-0.443c0.182-0.166,0.334-0.345,0.479-0.534c0.146-0.2,0.267-0.42,0.349-0.669
	c0.084-0.247,0.114-0.536,0.114-0.867c0-0.33-0.047-0.626-0.146-0.886c-0.096-0.259-0.21-0.486-0.34-0.676
	c-0.133-0.199-0.271-0.365-0.4-0.494c-0.146-0.141-0.271-0.259-0.372-0.34h1.104l1.136-0.636h-3.646v0.004H328.846L328.846,158.657z
	 M335.296,158.882v2.319h-2.319v0.842h2.319v2.319h0.843v-2.319h2.32v-0.842h-2.32v-2.319H335.296z M327.729,159.242
	c0.364,0,0.688,0.116,0.957,0.341c0.282,0.213,0.521,0.479,0.705,0.81c0.188,0.331,0.33,0.688,0.433,1.066
	c0.104,0.379,0.146,0.723,0.146,1.042c0,0.166-0.021,0.375-0.068,0.623c-0.049,0.249-0.174,0.475-0.372,0.676
	c-0.146,0.142-0.312,0.258-0.546,0.354c-0.215,0.094-0.435,0.141-0.646,0.141c-0.379,0-0.707-0.109-0.979-0.321
	c-0.271-0.224-0.513-0.497-0.692-0.816c-0.178-0.319-0.312-0.656-0.396-1.022c-0.084-0.366-0.136-0.701-0.136-0.996
	c0-0.236,0.021-0.463,0.067-0.688c0.062-0.223,0.168-0.433,0.313-0.623c0.146-0.176,0.315-0.317,0.553-0.425
	C327.257,159.296,327.49,159.242,327.729,159.242z M328.344,167.146h0.25h0.213c0.062,0,0.123,0,0.193,0.012
	c0.325,0.236,0.613,0.455,0.861,0.643c0.248,0.189,0.446,0.369,0.604,0.547c0.146,0.178,0.271,0.357,0.342,0.533
	c0.082,0.189,0.123,0.394,0.123,0.617c0,0.555-0.229,1.008-0.679,1.361c-0.438,0.367-1.073,0.555-1.933,0.555
	c-0.957,0-1.729-0.203-2.289-0.605c-0.56-0.4-0.824-0.917-0.824-1.555c0-0.318,0.061-0.584,0.18-0.797
	c0.129-0.212,0.271-0.391,0.438-0.533c0.166-0.141,0.33-0.258,0.494-0.34c0.181-0.072,0.312-0.119,0.405-0.155
	c0.188-0.058,0.39-0.113,0.586-0.161c0.193-0.035,0.396-0.065,0.562-0.09C328.064,167.167,328.214,167.157,328.344,167.146
	L328.344,167.146z"/>
<g>
	<path d="M20.216,270c-0.126,0-0.252-0.049-0.348-0.146c-0.192-0.195-0.192-0.512,0-0.707l8.447-8.589H0.492
		c-0.272,0-0.492-0.224-0.492-0.5s0.22-0.5,0.492-0.5H28.32l-8.562-8.704c-0.192-0.195-0.192-0.512,0-0.707
		c0.192-0.195,0.503-0.195,0.696,0l9.396,9.555c0.009,0.009,0.021,0.019,0.027,0.029l0,0l0,0c0.062,0.078,0.104,0.171,0.116,0.267
		l0,0l0,0c0.003,0.029,0.004,0.058,0.002,0.086l0,0l0,0c-0.006,0.111-0.051,0.22-0.127,0.307c-0.006,0.006-0.016,0.012-0.021,0.017
		l-9.292,9.442C20.467,269.951,20.341,270,20.216,270z"/>
</g>
<g>
	<path fill="#FFFFFF" d="M220.216,270c-0.126,0-0.252-0.049-0.348-0.146c-0.192-0.195-0.192-0.512,0-0.707l8.446-8.589h-27.823
		c-0.272,0-0.492-0.224-0.492-0.5s0.22-0.5,0.492-0.5h27.823l-8.562-8.704c-0.189-0.195-0.189-0.512,0-0.707
		c0.188-0.195,0.503-0.195,0.695,0l9.396,9.555c0.011,0.009,0.021,0.019,0.021,0.029l0,0l0,0c0.062,0.078,0.104,0.171,0.107,0.267
		l0,0c0.002,0,0.002,0,0.002,0c0.006,0.029,0.008,0.058,0.004,0.086l0,0l0,0c-0.011,0.111-0.056,0.22-0.129,0.307
		c-0.011,0.006-0.02,0.012-0.021,0.017l-9.291,9.442C220.468,269.951,220.342,270,220.216,270z"/>
</g>
<g>
	<path d="M109.896,270c-0.126,0-0.251-0.049-0.348-0.146l-9.401-9.555c-0.009-0.009-0.018-0.019-0.022-0.029l0,0l0,0
		c-0.066-0.078-0.104-0.171-0.116-0.267l0,0l0,0c-0.003-0.029-0.004-0.058-0.002-0.086l0,0l0,0c0.006-0.111,0.048-0.22,0.127-0.307
		c0.005-0.006,0.01-0.012,0.016-0.017l9.292-9.442c0.192-0.195,0.503-0.195,0.695,0c0.192,0.195,0.192,0.512,0,0.707l-8.452,8.589
		h27.828c0.271,0,0.492,0.224,0.492,0.5c0,0.276-0.225,0.5-0.492,0.5h-27.83l8.564,8.704c0.188,0.195,0.188,0.512,0,0.707
		C110.147,269.951,110.021,270,109.896,270z"/>
</g>
<g>
	<path fill="#FFFFFF" d="M309.896,270c-0.136,0-0.261-0.049-0.354-0.146l-9.396-9.555c-0.021-0.009-0.021-0.019-0.025-0.029
		c-0.001,0-0.001,0-0.001,0l0,0c-0.062-0.078-0.104-0.171-0.11-0.267l0,0l0,0c-0.004-0.029-0.007-0.058-0.003-0.086l0,0l0,0
		c0.007-0.111,0.05-0.22,0.127-0.307c0.007-0.006,0.015-0.012,0.021-0.017l9.291-9.442c0.188-0.195,0.506-0.195,0.688,0
		c0.188,0.195,0.188,0.512,0,0.707l-8.448,8.589h27.824c0.271,0,0.487,0.224,0.487,0.5c0,0.276-0.222,0.5-0.487,0.5h-27.83
		l8.562,8.704c0.188,0.195,0.188,0.512,0,0.707C310.146,269.951,310.021,270,309.896,270z"/>
</g>
<g>
	<path d="M0.612,370.006c-0.128,0-0.256-0.049-0.354-0.146c-0.195-0.195-0.195-0.519,0-0.707l9.094-9.101l-9.206-9.204
		c-0.19-0.189-0.19-0.513,0-0.701c0.195-0.195,0.517-0.195,0.707,0l9.562,9.559l0,0l0,0l0,0c0,0,0,0,0.001,0.001l0,0l0,0l0,0
		c0.001,0,0.001,0.001,0.001,0.001l0.001,0.001l0,0c0,0,0,0,0.001,0.001l0,0c0,0,0,0,0.001,0.001l0,0
		c0.001,0.001,0.001,0.001,0.002,0.002l0,0c0.087,0.092,0.132,0.209,0.136,0.327l0,0c0,0.002,0,0.005,0,0.007c0,0,0,0.001,0,0.003
		l0,0l0,0c0,0,0,0,0,0.001c0,0,0,0,0,0.001l0,0c0,0,0,0,0,0.001l0,0l0,0c0,0.001,0,0.001,0,0.002l0,0c0,0,0,0,0,0.001l0,0l0,0v0.001
		l0,0c0,0,0,0,0,0.006l0,0c0,0.005,0,0.008,0,0.011l0,0c0,0.005,0,0.011-0.001,0.016l0,0c-0.007,0.114-0.053,0.229-0.139,0.315l0,0
		l-0.001,0.001l0,0c0,0,0,0-0.001,0.001l0,0c-0.001,0.001-0.002,0.002-0.002,0.002s0,0-0.001,0.001l0,0l0,0l0,0l-9.447,9.447
		C0.868,369.957,0.74,370.006,0.612,370.006z"/>
	<path d="M19.619,370.006c-0.128,0-0.261-0.049-0.354-0.146l-9.56-9.562l0,0l0,0l0,0c0,0,0,0-0.001-0.001l0,0l0,0l0,0
		c0,0,0-0.001-0.001-0.001l-0.001-0.001l0,0c0,0,0,0-0.001-0.001l0,0c0,0,0,0-0.001-0.001l0,0c-0.001-0.001-0.001-0.001-0.007-0.002
		l0,0c-0.087-0.092-0.132-0.209-0.136-0.327l0,0c0-0.002,0-0.005,0-0.007c0,0,0-0.001,0-0.003l0,0l0,0c0,0,0,0,0-0.001
		c0,0,0,0,0-0.001l0,0c0,0,0,0,0-0.001l0,0l0,0c0-0.001,0-0.001,0-0.002l0,0c0,0,0,0,0-0.001l0,0l0,0v-0.001l0,0c0,0,0,0,0-0.001
		l0,0c0-0.003,0-0.01,0-0.016l0,0c0-0.005,0-0.011,0.001-0.016l0,0c0.007-0.114,0.058-0.228,0.144-0.312l0,0l0.001-0.002l0,0
		c0,0,0,0,0.001-0.002l0,0c0.001-0.002,0.002-0.003,0.002-0.003s0,0,0.001-0.001l0,0l0,0l0,0l9.442-9.44
		c0.195-0.195,0.517-0.195,0.707,0c0.195,0.188,0.195,0.512,0,0.707l-9.094,9.094l9.206,9.205c0.195,0.188,0.195,0.512,0,0.707
		C19.875,369.957,19.747,370.006,19.619,370.006z"/>
</g>
<g>
	<path fill="#FFFFFF" d="M100.612,370.006c-0.128,0-0.256-0.049-0.354-0.146c-0.195-0.195-0.195-0.519,0-0.707l9.094-9.101
		l-9.206-9.204c-0.19-0.189-0.19-0.513,0-0.701c0.195-0.195,0.517-0.195,0.707,0l9.562,9.559l0,0l0,0l0,0c0,0,0,0,0.001,0.001l0,0
		l0,0l0,0c0.001,0,0.001,0.001,0.001,0.001l0.001,0.001l0,0c0,0,0,0,0.001,0.001l0,0c0,0,0,0,0.001,0.001l0,0
		c0.001,0.001,0.001,0.001,0.002,0.002l0,0c0.087,0.092,0.132,0.209,0.136,0.327l0,0c0,0.002,0,0.005,0,0.007c0,0,0,0.001,0,0.003
		l0,0l0,0c0,0,0,0,0,0.001c0,0,0,0,0,0.001l0,0c0,0,0,0,0,0.001l0,0l0,0c0,0.001,0,0.001,0,0.002l0,0c0,0,0,0,0,0.001l0,0l0,0v0.001
		l0,0c0,0,0,0,0,0.006l0,0c0,0.005,0,0.008,0,0.011l0,0c0,0.005,0,0.011-0.001,0.016l0,0c-0.007,0.114-0.053,0.229-0.139,0.315l0,0
		l-0.001,0.001l0,0c0,0,0,0-0.001,0.001l0,0c-0.001,0.001-0.002,0.002-0.002,0.002s0,0-0.001,0.001l0,0l0,0l0,0l-9.447,9.447
		C100.868,369.957,100.74,370.006,100.612,370.006z"/>
	<path fill="#FFFFFF" d="M119.619,370.006c-0.128,0-0.261-0.049-0.354-0.146l-9.56-9.562l0,0l0,0l0,0c0,0,0,0-0.001-0.001l0,0l0,0
		l0,0c0,0,0-0.001-0.001-0.001l-0.001-0.001l0,0c0,0,0,0-0.001-0.001l0,0c0,0,0,0-0.001-0.001l0,0
		c-0.001-0.001-0.001-0.001-0.002-0.002l0,0c-0.092-0.092-0.137-0.209-0.141-0.327l0,0c0-0.002,0-0.005,0-0.007c0,0,0-0.001,0-0.003
		l0,0l0,0c0,0,0,0,0-0.001c0,0,0,0,0-0.001l0,0c0,0,0,0,0-0.001l0,0l0,0c0-0.001,0-0.001,0-0.002l0,0c0,0,0,0,0-0.001l0,0l0,0
		v-0.001l0,0c0,0,0,0,0-0.001l0,0c0-0.003,0-0.01,0-0.016l0,0c0-0.005,0-0.011,0.001-0.016l0,0c0.007-0.114,0.058-0.228,0.144-0.312
		l0,0l0.001-0.002l0,0c0,0,0,0,0.001-0.002l0,0c0.001-0.002,0.002-0.003,0.002-0.003s0,0,0.001-0.001l0,0l0,0l0,0l9.442-9.44
		c0.195-0.195,0.517-0.195,0.707,0c0.195,0.188,0.195,0.512,0,0.707l-9.094,9.094l9.206,9.205c0.195,0.188,0.195,0.512,0,0.707
		C119.875,369.957,119.747,370.006,119.619,370.006z"/>
</g>
<g>
	<rect x="-0.5" y="450.5" fill="#B2B1B2" width="6" height="6"/>
	<rect x="7.5" y="450.5" fill="#B2B1B2" width="6" height="6"/>
	<rect x="-0.5" y="458.5" fill="#B2B1B2" width="6" height="6"/>
	<rect x="7.5" y="458.5" fill="#B2B1B2" width="6" height="6"/>
	<rect x="-0.5" y="466.5" fill="#B2B1B2" width="6" height="6"/>
	<rect x="7.5" y="466.5" fill="#B2B1B2" width="6" height="6"/>
	<rect x="15.5" y="450.5" fill="#B2B1B2" width="6" height="6"/>
	<rect x="15.5" y="458.5" fill="#B2B1B2" width="6" height="6"/>
	<rect x="15.5" y="466.5" fill="#B2B1B2" width="6" height="6"/>
</g>
<g>
	<line fill="none" stroke="#BC9B6A" stroke-miterlimit="10" x1="215" y1="346.704" x2="215" y2="373.296"/>
	<line fill="none" stroke="#BC9B6A" stroke-miterlimit="10" x1="201.704" y1="360" x2="228.296" y2="360"/>
</g>
<g>
	<line fill="none" stroke="#FFFFFF" stroke-miterlimit="10" x1="265" y1="346.704" x2="265" y2="373.296"/>
	<line fill="none" stroke="#FFFFFF" stroke-miterlimit="10" x1="251.704" y1="360" x2="278.296" y2="360"/>
</g>
<g>
	<g>
		<polygon points="349.57,350.759 349.5,350.829 349.43,350.759 339.688,360.501 349.43,370.241 349.5,370.171 349.57,370.241 
			359.312,360.501 		"/>
		<g>
			<g>
				<path fill="#EEEEEE" d="M347.368,364.167c0-0.51,0.132-0.875,0.207-1.146l1.082-3.568c0.062-0.223,0.105-0.398,0.105-0.525
					c0-0.303-0.229-0.383-0.696-0.383h-0.541l0.078-0.27l3.188-0.191c0,0.492-0.062,1.02-0.387,2.039l-0.854,2.787
					c-0.103,0.287-0.23,0.797-0.23,1.02c0,0.334,0.104,0.463,0.354,0.463c0.308,0,0.771-0.441,1.371-1.479l0.231,0.176
					c-0.604,1.193-1.477,2.086-2.634,2.086C347.691,365.171,347.368,364.599,347.368,364.167z M349.073,355.979
					c0-0.637,0.521-1.156,1.165-1.156c0.641,0,1.16,0.521,1.16,1.156c0,0.643-0.521,1.162-1.16,1.162
					C349.602,357.142,349.073,356.616,349.073,355.979z"/>
			</g>
		</g>
	</g>
	<polygon points="350.57,349.759 350.5,349.829 350.43,349.759 340.688,359.501 350.43,369.241 350.5,369.171 350.57,369.241 
		360.312,359.501 	"/>
	<g>
		<g>
			<path fill="#EEEEEE" d="M348.368,364.146c0-0.516,0.132-0.883,0.207-1.146l1.082-3.568c0.062-0.225,0.105-0.396,0.105-0.521
				c0-0.309-0.229-0.381-0.696-0.381h-0.541l0.078-0.271l3.188-0.189c0,0.49-0.062,1.021-0.387,2.035l-0.854,2.789
				c-0.103,0.285-0.23,0.796-0.23,1.021c0,0.334,0.104,0.461,0.354,0.461c0.308,0,0.771-0.445,1.371-1.48l0.231,0.18
				c-0.604,1.189-1.477,2.088-2.634,2.088C348.691,365.149,348.368,364.575,348.368,364.146z M350.073,355.958
				c0-0.639,0.521-1.162,1.165-1.162c0.641,0,1.16,0.523,1.16,1.162c0,0.637-0.521,1.162-1.16,1.162
				C350.602,357.12,350.073,356.595,350.073,355.958z"/>
		</g>
	</g>
</g>
<g>
	<g>
		<g>
			<g>
				<g>
					<g>
						<g>
							<g>
								<g>
									<g>
										<g>
											<g>
												<g>
													<g>
														<g>
															<g>
																<g>
																	<g>
																		<g>
																			<defs>
																				<rect id="SVGID_2_" y="500" width="20.52" height="26.029"/>
																			</defs>
																			<clipPath id="SVGID_3_">
																				<use xlink:href="#SVGID_2_"  overflow="visible"/>
																			</clipPath>
																			
																				<linearGradient id="SVGID_4_" gradientUnits="userSpaceOnUse" x1="624.2998" y1="526.2588" x2="644.8184" y2="526.2588" gradientTransform="matrix(1 0 0 -1 -624.2998 1039.2734)">
																				<stop  offset="0" style="stop-color:#BC9B6A"/>
																				<stop  offset="1" style="stop-color:#BC9B6A;stop-opacity:0.8"/>
																			</linearGradient>
																			<path clip-path="url(#SVGID_3_)" fill="url(#SVGID_4_)" d="M19.396,526.029c0.621,0,1.123-0.503,1.123-1.125
																				v-23.779c0-0.621-0.502-1.125-1.123-1.125H1.123C0.502,500,0,500.504,0,501.125v23.779
																				c0,0.622,0.502,1.125,1.123,1.125H19.396z M10.396,525.461c-0.312,0-0.567-0.256-0.567-0.57
																				c0-0.312,0.256-0.562,0.567-0.562c0.314,0,0.57,0.256,0.57,0.562C10.967,525.205,10.713,525.461,10.396,525.461
																				 M18.5,523.678H2.111v-21.756H18.5V523.678z"/>
																		</g>
																	</g>
																</g>
															</g>
														</g>
													</g>
												</g>
											</g>
										</g>
									</g>
								</g>
							</g>
						</g>
					</g>
				</g>
			</g>
		</g>
	</g>
</g>
<g>
	<g>
		<g>
			<g>
				<g>
					<g>
						<g>
							<g>
								<g>
									<g>
										<g>
											<g>
												<g>
													<g>
														<g>
															<g>
																<g>
																	<g>
																		<g>
																			<defs>
																				<rect id="SVGID_5_" x="33.619" y="505.717" width="8.305" height="15.574"/>
																			</defs>
																			<clipPath id="SVGID_6_">
																				<use xlink:href="#SVGID_5_"  overflow="visible"/>
																			</clipPath>
																			
																				<linearGradient id="SVGID_7_" gradientUnits="userSpaceOnUse" x1="657.9189" y1="525.7676" x2="666.2236" y2="525.7676" gradientTransform="matrix(1 0 0 -1 -624.2998 1039.2734)">
																				<stop  offset="0" style="stop-color:#BC9B6A"/>
																				<stop  offset="1" style="stop-color:#BC9B6A;stop-opacity:0.8"/>
																			</linearGradient>
																			<path clip-path="url(#SVGID_6_)" fill="url(#SVGID_7_)" d="M40.627,505.717h-5.71
																				c-0.714,0-1.298,0.584-1.298,1.299v12.979c0,0.715,0.584,1.299,1.298,1.299h5.71
																				c0.713,0,1.297-0.584,1.297-1.299v-12.979C41.924,506.301,41.34,505.717,40.627,505.717 M36.994,506.756h1.557
																				c0.143,0,0.26,0.115,0.26,0.26c0,0.146-0.117,0.271-0.26,0.271h-1.557c-0.146,0-0.265-0.118-0.265-0.271
																				C36.734,506.871,36.852,506.756,36.994,506.756 M37.771,520.771c-0.43,0-0.774-0.354-0.774-0.779
																				c0-0.43,0.35-0.777,0.774-0.777c0.434,0,0.779,0.354,0.779,0.777C38.551,520.424,38.201,520.771,37.771,520.771
																				 M41.406,518.695h-7.268v-10.383h7.268V518.695z"/>
																		</g>
																	</g>
																</g>
															</g>
														</g>
													</g>
												</g>
											</g>
										</g>
									</g>
								</g>
							</g>
						</g>
					</g>
				</g>
			</g>
		</g>
	</g>
</g>
<g>
	<g>
		<g>
			<g>
				<g>
					<g>
						<g>
							<g>
								<g>
									<g>
										<g>
											<g>
												<g>
													<g>
														<g>
															<g>
																<g>
																	<defs>
																		<rect id="SVGID_8_" x="374.252" y="550" width="15.748" height="8.562"/>
																	</defs>
																	<clipPath id="SVGID_9_">
																		<use xlink:href="#SVGID_8_"  overflow="visible"/>
																	</clipPath>
																	<polygon clip-path="url(#SVGID_9_)" fill="#808080" points="389.286,550 382.126,557.146 374.961,550.002 
																		374.252,550.709 382.126,558.562 390,550.707 																	"/>
																</g>
															</g>
														</g>
													</g>
												</g>
											</g>
										</g>
									</g>
								</g>
							</g>
						</g>
					</g>
				</g>
			</g>
		</g>
	</g>
</g>
<g>
	<g>
		<g>
			<g>
				<g>
					<g>
						<g>
							<g>
								<g>
									<g>
										<g>
											<g>
												<g>
													<g>
														<g>
															<g>
																<g>
																	<defs>
																		<rect id="SVGID_10_" x="374.252" y="850" width="15.748" height="8.562"/>
																	</defs>
																	<clipPath id="SVGID_11_">
																		<use xlink:href="#SVGID_10_"  overflow="visible"/>
																	</clipPath>
																	<polygon clip-path="url(#SVGID_11_)" fill="#808080" points="374.966,858.562 382.126,851.416 389.291,858.561 
																		390,857.854 382.126,850 374.252,857.855 																	"/>
																</g>
															</g>
														</g>
													</g>
												</g>
											</g>
										</g>
									</g>
								</g>
							</g>
						</g>
					</g>
				</g>
			</g>
		</g>
	</g>
</g>
<g>
	
		<linearGradient id="SVGID_12_" gradientUnits="userSpaceOnUse" x1="1042.5957" y1="-817.5176" x2="1055.877" y2="-817.5176" gradientTransform="matrix(1 0 0 1 -1013.2988 986.2734)">
		<stop  offset="0" style="stop-color:#B6956A"/>
		<stop  offset="1" style="stop-color:#B6956A;stop-opacity:0.8"/>
	</linearGradient>
	<path fill="url(#SVGID_12_)" d="M42.578,164.632c-0.489,0.218-1.018,0.364-1.564,0.43c0.562-0.337,0.994-0.872,1.197-1.51
		c-0.526,0.313-1.11,0.54-1.731,0.664c-0.497-0.531-1.205-0.861-1.984-0.861c-1.512,0-2.729,1.221-2.729,2.726
		c0,0.214,0.026,0.422,0.07,0.622c-2.27-0.114-4.272-1.199-5.618-2.848c-0.235,0.401-0.367,0.87-0.367,1.37
		c0,0.945,0.479,1.781,1.21,2.27c-0.445-0.014-0.865-0.138-1.229-0.341c0,0.012,0,0.022,0,0.034c0,1.319,0.938,2.423,2.186,2.672
		c-0.229,0.063-0.469,0.097-0.719,0.097c-0.177,0-0.348-0.02-0.519-0.049c0.354,1.082,1.354,1.872,2.552,1.893
		c-0.938,0.731-2.106,1.168-3.39,1.168c-0.219,0-0.436-0.013-0.646-0.039c1.207,0.775,2.641,1.227,4.181,1.227
		c5.019,0,7.755-4.156,7.755-7.757c0-0.119-0.002-0.236-0.007-0.353C41.75,165.659,42.213,165.18,42.578,164.632z"/>
</g>
<g>
	<g>
		
			<linearGradient id="SVGID_13_" gradientUnits="userSpaceOnUse" x1="1114.0898" y1="-817.5195" x2="1122.002" y2="-817.5195" gradientTransform="matrix(1 0 0 1 -1013.2988 986.2734)">
			<stop  offset="0" style="stop-color:#B6956A"/>
			<stop  offset="1" style="stop-color:#B6956A;stop-opacity:0.8"/>
		</linearGradient>
		<path fill="url(#SVGID_13_)" d="M108.703,174.366c-0.538,0.256-1.025,0.434-1.463,0.535c-0.438,0.101-0.909,0.153-1.415,0.153
			c-0.576,0-0.918-0.073-1.36-0.216c-0.441-0.146-0.819-0.355-1.132-0.623c-0.313-0.27-0.529-0.556-0.649-0.858
			c-0.121-0.306-0.185-0.743-0.185-1.319v-4.418h-1.708v-1.787c0.494-0.159,1.062-0.39,1.42-0.69c0.354-0.3,0.639-0.659,0.851-1.082
			c0.213-0.419,0.36-0.956,0.441-1.607h1.791v2.917h2.915v2.249h-2.915v3.229c0,0.732-0.009,1.152,0.064,1.36
			c0.075,0.206,0.271,0.421,0.479,0.545c0.279,0.167,0.596,0.249,0.956,0.249c0.639,0,1.271-0.208,1.904-0.62L108.703,174.366
			L108.703,174.366z"/>
	</g>
</g>
<path fill="#FFFFFF" d="M17.328,601.666c-0.645,0.286-1.319,0.477-2.041,0.562c0.729-0.441,1.297-1.146,1.562-1.979
	c-0.687,0.409-1.446,0.703-2.256,0.865c-0.649-0.692-1.574-1.124-2.595-1.124c-1.972,0-3.562,1.593-3.562,3.559
	c0,0.275,0.035,0.562,0.097,0.812c-2.953-0.148-5.572-1.564-7.326-3.717c-0.312,0.521-0.481,1.137-0.481,1.783
	c0,1.229,0.627,2.314,1.579,2.959c-0.583-0.021-1.127-0.188-1.604-0.438v0.044c0,1.721,1.224,3.159,2.85,3.479
	c-0.301,0.082-0.612,0.125-0.938,0.125c-0.229,0-0.446-0.021-0.67-0.062c0.457,1.412,1.771,2.438,3.321,2.47
	c-1.215,0.953-2.747,1.522-4.413,1.522c-0.287,0-0.564-0.021-0.849-0.062c1.566,1.021,3.438,1.604,5.451,1.604
	c6.533,0,10.105-5.417,10.105-10.114c0-0.154-0.002-0.307-0.008-0.457C16.25,603.007,16.851,602.381,17.328,601.666"/>
<path fill="#FFFFFF" d="M102.795,600c-1.552,0-2.795,1.243-2.795,2.796v11.743c0,1.553,1.243,2.794,2.795,2.794h11.744
	c1.553,0,2.795-1.241,2.795-2.794v-11.743c0-1.553-1.242-2.796-2.795-2.796H102.795z M112.117,601.946h2.639
	c0.347,0,0.632,0.287,0.632,0.635v2.637c0,0.354-0.285,0.633-0.632,0.633h-2.639c-0.354,0-0.638-0.271-0.638-0.633v-2.637
	C111.484,602.233,111.769,601.946,112.117,601.946 M108.67,605.365c1.954,0,3.513,1.562,3.513,3.521s-1.559,3.521-3.513,3.521
	c-1.949,0-3.526-1.562-3.526-3.521C105.144,606.936,106.721,605.365,108.67,605.365 M101.444,607.51h2.413
	c-0.126,0.438-0.192,0.9-0.192,1.376c0,2.759,2.254,5.002,5.01,5.002c2.759,0,5.005-2.243,5.005-5.002
	c0-0.476-0.08-0.938-0.208-1.376h2.422v6.788c0,1.042-0.838,1.88-1.879,1.88H103.32c-1.04,0-1.872-0.838-1.872-1.88L101.444,607.51
	L101.444,607.51z"/>
<g>
	<polygon points="12.54,672.743 5.392,665.598 12.538,658.45 11.831,657.743 3.978,665.598 11.833,673.45 	"/>
</g>
<g>
	<polygon points="57.384,672.743 64.532,665.598 57.386,658.45 58.093,657.743 65.946,665.598 58.091,673.45 	"/>
</g>
<path id="rect4122_2_" d="M362.037,102.107c-1.127,0-2.027,0.904-2.027,2.031v8.538c0,1.128,0.9,2.031,2.027,2.031h8.538
	c1.126,0,2.025-0.903,2.025-2.031v-8.538c0-1.127-0.899-2.031-2.025-2.031H362.037z M368.818,103.522h1.916
	c0.252,0,0.461,0.208,0.461,0.461v1.916c0,0.254-0.209,0.46-0.461,0.46h-1.916c-0.254,0-0.459-0.207-0.459-0.46v-1.916
	C368.359,103.729,368.564,103.522,368.818,103.522z M366.312,106.007c1.42,0,2.556,1.142,2.556,2.56
	c0,1.417-1.136,2.552-2.556,2.552c-1.421,0-2.562-1.135-2.562-2.552C363.744,107.148,364.895,106.007,366.312,106.007z
	 M361.062,107.565h1.752c-0.095,0.317-0.146,0.655-0.146,1.001c0,2.005,1.643,3.635,3.646,3.635c2.008,0,3.646-1.63,3.646-3.635
	c0-0.347-0.062-0.684-0.146-1.001h1.769v4.935c0,0.756-0.604,1.368-1.364,1.368h-7.771c-0.754,0-1.354-0.612-1.354-1.368v-4.935
	H361.062z"/>
<path fill="#BB9A6A" d="M20.446,767.766l-3.658-3.717c-0.066-0.062-0.139-0.111-0.203-0.162c0.919-1.408,1.46-3.088,1.46-4.894
	c0-4.968-4.035-8.993-9.021-8.993C4.037,750,0,754.025,0,758.993c0,4.964,4.035,8.989,9.02,8.989c1.812,0,3.5-0.537,4.916-1.455
	c0.05,0.062,0.101,0.137,0.159,0.188l3.662,3.729C18.129,770.812,18.615,771,19.1,771c0.482,0,0.969-0.188,1.346-0.557
	C21.186,769.705,21.186,768.508,20.446,767.766 M9.02,765.145c-3.396,0-6.172-2.76-6.172-6.146c0-3.396,2.771-6.153,6.172-6.153
	c3.402,0,6.173,2.77,6.173,6.153S12.422,765.145,9.02,765.145"/>
<line fill="none" stroke="#BB9A6A" stroke-miterlimit="10" x1="75.001" y1="753" x2="59.002" y2="769"/>
<line fill="none" stroke="#BB9A6A" stroke-miterlimit="10" x1="59.001" y1="753" x2="75" y2="769"/>
<g>
	<rect x="200" y="750" fill="#939393" width="15" height="2.368"/>
	<rect x="200" y="756.314" fill="#939393" width="15" height="2.358"/>
	<rect x="200" y="762.631" fill="#939393" width="15" height="2.369"/>
</g>
<polygon points="20.507,710.843 20.501,709.741 2.165,709.741 6.202,705.703 5.49,705 0,710.454 5.565,715.942 6.268,715.229 
	1.939,710.812 "/>
<polygon points="379.49,710.1 379.496,711.201 397.835,711.201 393.798,715.239 394.512,715.942 400,710.488 394.436,705 
	393.732,705.713 398.062,710.131 "/>
<g opacity="0.7">
	<g>
		<polygon fill="#BC9B6A" points="33.082,195.188 34.369,195.188 35.201,198.509 35.281,198.509 36.075,195.188 37.378,195.188 
			35.888,200.047 35.888,203.493 34.605,203.493 34.605,200.203 		"/>
		<path fill="#BC9B6A" d="M37.321,198.768c0-0.474,0.15-0.852,0.457-1.133c0.307-0.282,0.72-0.423,1.233-0.423
			c0.471,0,0.857,0.149,1.159,0.445c0.303,0.296,0.45,0.679,0.45,1.145v3.164c0,0.526-0.146,0.937-0.441,1.234
			c-0.295,0.3-0.7,0.446-1.22,0.446c-0.493,0-0.896-0.151-1.194-0.459c-0.297-0.309-0.444-0.725-0.444-1.242V198.768z
			 M38.489,202.06c0,0.169,0.042,0.298,0.123,0.389c0.079,0.093,0.194,0.14,0.349,0.14c0.151,0,0.276-0.049,0.369-0.143
			c0.089-0.093,0.134-0.222,0.134-0.386v-3.337c0-0.135-0.045-0.242-0.137-0.325c-0.097-0.081-0.217-0.123-0.366-0.123
			c-0.143,0-0.25,0.042-0.339,0.123c-0.086,0.083-0.133,0.19-0.133,0.325V202.06L38.489,202.06z"/>
		<path fill="#BC9B6A" d="M44.834,197.367v6.126h-1.141v-0.676c-0.207,0.248-0.429,0.438-0.652,0.57
			c-0.229,0.129-0.446,0.196-0.658,0.196c-0.266,0-0.462-0.094-0.594-0.275c-0.14-0.182-0.205-0.456-0.205-0.819v-5.122h1.142v4.696
			c0,0.146,0.022,0.251,0.071,0.314c0.046,0.066,0.125,0.1,0.229,0.1c0.086,0,0.191-0.044,0.316-0.131
			c0.13-0.086,0.248-0.194,0.353-0.329v-4.65H44.834L44.834,197.367z"/>
	</g>
	<g>
		<path fill="#BC9B6A" d="M57.204,198.252c-0.081,0-0.162,0.021-0.242,0.06c-0.079,0.041-0.156,0.104-0.234,0.187v3.819
			c0.094,0.099,0.186,0.172,0.271,0.215c0.088,0.045,0.18,0.064,0.272,0.064c0.146,0,0.242-0.042,0.312-0.129
			c0.062-0.086,0.095-0.227,0.095-0.421v-3.163c0-0.206-0.038-0.362-0.121-0.472C57.476,198.306,57.356,198.252,57.204,198.252z"/>
		<path fill="#BC9B6A" d="M61.385,198.274c-0.18,0-0.31,0.057-0.387,0.166c-0.08,0.112-0.119,0.294-0.119,0.552v0.619h1.004v-0.619
			c0-0.258-0.04-0.439-0.119-0.552C61.684,198.331,61.56,198.274,61.385,198.274z"/>
		<path fill="#BC9B6A" d="M64.479,195.934c0-1.479-1.214-2.681-2.709-2.681c-2.133-0.088-4.312-0.128-6.543-0.123
			c-2.226-0.005-4.406,0.035-6.542,0.123c-1.493,0-2.705,1.201-2.705,2.681c-0.091,1.173-0.131,2.345-0.127,3.518
			c-0.004,1.169,0.036,2.341,0.127,3.514c0,1.479,1.212,2.681,2.705,2.681c2.136,0.087,4.316,0.129,6.542,0.123
			c2.229,0.006,4.41-0.036,6.543-0.123c1.495,0,2.709-1.201,2.709-2.681c0.087-1.173,0.129-2.345,0.125-3.514
			C64.608,198.278,64.566,197.106,64.479,195.934z M49.911,203.483h-1.28v-7.101h-1.325v-1.206h3.937v1.206h-1.328L49.911,203.483
			L49.911,203.483z M54.469,203.483h-1.137v-0.677c-0.209,0.249-0.431,0.438-0.653,0.568c-0.229,0.131-0.45,0.195-0.661,0.195
			c-0.263,0-0.463-0.09-0.594-0.272c-0.133-0.183-0.201-0.456-0.201-0.82v-5.121h1.138v4.696c0,0.146,0.022,0.25,0.071,0.315
			c0.047,0.065,0.125,0.097,0.232,0.097c0.084,0,0.188-0.043,0.312-0.128c0.129-0.087,0.244-0.197,0.354-0.329v-4.651h1.137
			L54.469,203.483L54.469,203.483z M58.848,202.214c0,0.435-0.089,0.768-0.266,0.998c-0.18,0.233-0.438,0.349-0.772,0.349
			c-0.224,0-0.42-0.046-0.595-0.135c-0.174-0.089-0.337-0.228-0.487-0.413v0.471H55.58v-8.307h1.146v2.676
			c0.153-0.188,0.318-0.33,0.487-0.428c0.175-0.096,0.349-0.146,0.521-0.146c0.36,0,0.638,0.131,0.825,0.394
			c0.188,0.262,0.283,0.643,0.283,1.143v3.398H58.848z M63.055,200.563h-2.176v1.155c0,0.322,0.037,0.546,0.107,0.67
			c0.077,0.125,0.204,0.187,0.391,0.187s0.314-0.051,0.394-0.156s0.112-0.341,0.112-0.7v-0.425h1.172v0.459
			c0,0.629-0.144,1.102-0.428,1.42c-0.285,0.315-0.711,0.474-1.279,0.474c-0.51,0-0.909-0.166-1.2-0.504
			c-0.296-0.336-0.438-0.8-0.438-1.39v-2.75c0-0.531,0.155-0.966,0.476-1.299c0.326-0.336,0.74-0.502,1.25-0.502
			c0.521,0,0.92,0.154,1.197,0.464c0.281,0.311,0.422,0.754,0.422,1.337V200.563L63.055,200.563z"/>
	</g>
</g>
<g opacity="0.7">
	<path fill="#BC9B6A" d="M12.342,192.802c-3.549,0-5.342,2.544-5.342,4.666c0,1.285,0.483,2.431,1.533,2.854
		c0.17,0.07,0.323,0.003,0.375-0.188c0.028-0.13,0.108-0.461,0.148-0.598c0.048-0.189,0.028-0.253-0.104-0.416
		c-0.303-0.355-0.494-0.814-0.494-1.466c0-1.888,1.412-3.578,3.676-3.578c2.008,0,3.111,1.226,3.111,2.862
		c0,2.154-0.955,3.973-2.37,3.973c-0.782,0-1.366-0.646-1.183-1.439c0.229-0.946,0.663-1.968,0.663-2.65
		c0-0.611-0.329-1.122-1.008-1.122c-0.802,0-1.438,0.826-1.438,1.935c0,0.704,0.232,1.182,0.232,1.182s-0.814,3.465-0.962,4.071
		c-0.283,1.208-0.043,2.689-0.021,2.839c0.012,0.088,0.128,0.109,0.178,0.042c0.07-0.097,1.023-1.27,1.351-2.444
		c0.088-0.333,0.521-2.053,0.521-2.053c0.259,0.493,1.021,0.931,1.827,0.931c2.397,0,4.026-2.189,4.026-5.121
		C17.07,194.864,15.195,192.802,12.342,192.802z"/>
</g>
<polygon points="212.334,450 212.334,451 219.628,451 201.5,469.127 201.5,461.833 200.5,461.833 200.5,470.833 209.5,470.833 
	209.5,469.833 202.208,469.833 220.334,451.708 220.334,459 221.334,459 221.334,450 "/>
<polygon fill="#FFFFFF" points="262.334,450 262.334,451 269.628,451 251.5,469.127 251.5,461.833 250.5,461.833 250.5,470.833 
	259.5,470.833 259.5,469.833 252.208,469.833 270.334,451.708 270.334,459 271.334,459 271.334,450 "/>
<g>
	<g>
		<g>
			<g>
				<g>
					<g>
						<g>
							<g>
								<g>
									<g>
										<g>
											<g>
												<g>
													<g>
														<g>
															<g>
																<defs>
																	<rect id="SVGID_14_" x="374.252" y="590" width="15.748" height="8.562"/>
																</defs>
																<clipPath id="SVGID_15_">
																	<use xlink:href="#SVGID_14_"  overflow="visible"/>
																</clipPath>
																<polygon clip-path="url(#SVGID_15_)" fill="#B6956A" points="389.287,590 382.126,597.146 374.961,590.002 
																	374.252,590.709 382.126,598.562 390,590.707 																"/>
															</g>
														</g>
													</g>
												</g>
											</g>
										</g>
									</g>
								</g>
							</g>
						</g>
					</g>
				</g>
			</g>
		</g>
	</g>
</g>
<path fill="#231F20" d="M42.554,800c0,0-20.217,11.976-20.217,27.143c0,6.553,3.424,10.857,8.641,10.857
	c4.893,0,7.663-3.673,7.663-7.025c0-7.345-7.5-6.062-7.5-13.093C31.141,808.621,45,800,45,800H42.554z M20.218,800
	C20.218,800,0,811.976,0,827.143C0,833.689,3.424,838,8.478,838c5.055,0,7.827-3.673,7.827-7.025c0-7.345-7.664-6.062-7.664-13.093
	c0-9.261,14.021-17.882,14.021-17.882H20.218L20.218,800z"/>
<path fill="#231F20" d="M52.446,838c0,0,20.218-11.976,20.218-27.143c0-6.552-3.425-10.857-8.642-10.857
	c-4.892,0-7.664,3.673-7.664,7.025c0,7.345,7.5,6.062,7.5,13.093C63.859,829.378,50,838,50,838H52.446z M74.783,838
	c0,0,20.217-11.976,20.217-27.143C95,804.312,91.576,800,86.522,800s-7.826,3.673-7.826,7.025c0,7.345,7.664,6.062,7.664,13.093
	c0,9.26-14.021,17.882-14.021,17.882H74.783L74.783,838z"/>
<g>
	<g>
		<path fill="#FFFFFF" d="M362.17,156.45c-4.146,0-7.496,3.319-7.496,7.423c0,3.037,1.846,5.649,4.484,6.794
			c-0.021-0.518-0.01-1.142,0.13-1.706c0.146-0.604,0.966-4.042,0.966-4.042s-0.238-0.476-0.238-1.172
			c0-1.102,0.646-1.923,1.447-1.923c0.682,0,1.012,0.508,1.012,1.113c0,0.68-0.438,1.695-0.659,2.636
			c-0.188,0.787,0.397,1.427,1.188,1.427c1.418,0,2.377-1.803,2.377-3.946c0-1.625-1.104-2.842-3.119-2.842
			c-2.271,0-3.688,1.678-3.688,3.551c0,0.647,0.188,1.106,0.493,1.457c0.146,0.162,0.148,0.229,0.104,0.414
			c-0.034,0.139-0.112,0.465-0.146,0.597c-0.059,0.189-0.203,0.255-0.375,0.185c-1.05-0.424-1.533-1.557-1.533-2.834
			c0-2.109,1.809-4.637,5.354-4.637c2.858,0,4.742,2.051,4.742,4.254c0,2.913-1.635,5.084-4.046,5.084
			c-0.812,0-1.567-0.435-1.831-0.926c0,0-0.438,1.709-0.527,2.043c-0.151,0.572-0.471,1.143-0.752,1.589
			c0.681,0.196,1.392,0.304,2.123,0.304c4.146,0,7.504-3.323,7.504-7.419C369.672,159.769,366.311,156.45,362.17,156.45z"/>
	</g>
</g>
<path fill="#FFFFFF" d="M219.043,161.885c-0.52,0.23-1.068,0.385-1.648,0.453c0.592-0.353,1.049-0.919,1.271-1.589
	c-0.562,0.33-1.184,0.566-1.826,0.698c-0.521-0.559-1.271-0.91-2.104-0.91c-1.586,0-2.873,1.289-2.873,2.875
	c0,0.228,0.025,0.446,0.076,0.654c-2.396-0.12-4.506-1.261-5.922-3c-0.25,0.422-0.396,0.918-0.396,1.443
	c0,0.996,0.604,1.875,1.373,2.392c-0.479-0.017-1.207-0.143-1.207-0.361c0,0.014,0,0.025,0,0.037c0,1.39,0.896,2.553,2.21,2.817
	c-0.242,0.066-0.543,0.1-0.812,0.1c-0.188,0-0.396-0.017-0.562-0.053c0.367,1.143,1.42,1.976,2.68,1.996
	c-0.979,0.773-2.229,1.229-3.576,1.229c-0.229,0-0.461-0.013-0.688-0.04c1.271,0.819,2.779,1.293,4.396,1.293
	c5.285,0,8.178-4.379,8.178-8.176c0-0.124-0.004-0.247-0.012-0.373C218.172,162.968,218.657,162.464,219.043,161.885z"/>
<path d="M150.61,819.999c-0.127,0-0.254-0.049-0.352-0.146c-0.194-0.195-0.194-0.518,0-0.707l9.04-9.097l-9.153-9.195
	c-0.193-0.195-0.193-0.518,0-0.707c0.194-0.195,0.509-0.195,0.703,0l9.504,9.556l0,0l0,0c0,0,0,0.001,0.001,0.001l0,0
	c0.193,0.195,0.192,0.51-0.001,0.705l-9.392,9.444C150.864,819.95,150.737,819.999,150.61,819.999z"/>
<path d="M169.503,820c-0.127,0-0.254-0.049-0.353-0.146l-9.502-9.557c-0.097-0.098-0.146-0.226-0.146-0.354
	c0-0.127,0.048-0.256,0.146-0.354l9.393-9.442c0.193-0.19,0.508-0.19,0.703,0c0.194,0.194,0.193,0.517,0,0.706l-9.04,9.095
	l9.15,9.197c0.194,0.195,0.194,0.518,0,0.707C169.758,819.951,169.63,820,169.503,820z"/>
<polygon fill="#808080" points="212,800.692 211.309,800 206.001,805.307 200.693,800 200,800.692 205.309,806 200.001,811.307 
	200.693,812 206.001,806.692 211.309,812 212,811.307 206.693,806 "/>
<g>
	<path fill="#FFFFFF" d="M268.607,29.505c-0.812,0.315-0.323,0.91,0.009,1.354c0.256,0.342-0.078,1.039-0.078,1.486
		c0.259-0.015,0.253-0.223,0.354-0.454c0.082,0.424,0.162,0.847,0.243,1.271c0.429-0.972,0.077,0.449,0.56,0.35
		c0-0.35,0-0.7,0-1.049c0.271,0.623,0.096,1.499,0.589,1.993c0.618,0.621,1.516,0.559,2.301,0.358
		c2.308-0.588,1.383-4.836,1.165-6.417c-0.387-2.806-0.84-5.624-1.038-8.451c-0.106-1.515-0.073-2.895,0.187-4.389
		c0.256-1.473-0.42-2.405-1.323-3.486c-0.253,0.426-0.505,0.851-0.757,1.277c-0.58-0.865-0.551-0.772-1.469-0.291
		c-0.14-0.53-0.277-1.062-0.416-1.592c-0.66,1.066-1.195,2.118-1.147,3.411c0.05,1.384-0.05,2.331-0.181,3.56
		c-0.365-0.058-0.732-0.115-1.102-0.172c-0.027,0.512-0.377,1.337,0.243,1.54c0.081-0.354,0.112-0.71,0.094-1.071
		c0.808,1.536-0.917,2.44-1.17,3.831c0.236-0.291,0.472-0.583,0.708-0.875c0.264,2.118-2.751,2.505-4.021,3.528
		c0-0.211,0-0.422,0-0.634c-0.475,0.428-0.945,0.855-1.42,1.283c-0.889-3.154-0.516-7.182-0.361-10.441
		c0.085-1.828-0.121-2.799-1.104-4.341c-0.266-0.416-1.201-0.083-1.549-0.034c-0.93,0.133-0.77-0.452-0.999-1.262
		c-0.562,1.038-0.946,1.642-0.919,2.877c0.018,0.824-0.129,2.478,0.202,3.214c0.162,0.36,0.422,3.978-0.272,3.697
		c0,0.382,0,0.765,0,1.146c0.455-1.166,0.176,0.685,0.168,0.884c-0.023,0.646-0.078,1.29-0.111,1.936
		c-0.062,1.124-0.383,2.294,0.139,3.364c0.777,1.592,0.922,4.129,2.997,4.413c2.215,0.302,4.054-1.186,5.272-2.785
		c0.599-0.781,1.371-1.405,2.094-2.066c0.77-0.707,1.216-2.114,1.216-0.316c0.106-0.204,0.214-0.407,0.321-0.61
		c0.492,0.538,0.729,1.24-0.229,1.119C267.973,27.68,268.005,28.655,268.607,29.505C268.078,29.711,268.466,29.305,268.607,29.505z
		 M352.159,32.24c0.427,0.566,0.757,0.886,0.952,1.577c0.208,0.732,0.86,0.458,1.439,0.576c1.775,0.363,2.191-0.681,2.228-2.288
		c0.087-4.248,0.175-8.445,0.482-12.688c0.054-0.717,0.483-1.554,0.616-2.287c0.185-1.011,0.624-1.921,0.885-2.909
		c0.225-0.847-0.15-1.874,0.097-2.624c0.259-0.786,0.376-1.082,0.301-1.867c-0.059-0.589,0.304-1.34,0.389-1.926
		c0.105-0.729,0.066-1.625,0.624-2.179c0.649-0.646,0.926-1.293,0.843-2.233c-0.07-0.825-1.176-0.388-1.56-0.276
		c-0.155-0.353,0.402-0.523,0.667-0.708c-0.252-0.051-0.503-0.103-0.755-0.155c0.026-0.642-0.097-0.792-0.435-0.162
		c-0.15,0.281-0.103,0.543,0.147,0.787c0.062,0.46-0.379,0.821-0.591,1.167c-0.141-0.179-0.276-0.358-0.415-0.536
		c-0.204,0.496-0.442,0.149-0.841-0.025C357,4.14,356.64,4.428,356.36,4.962c-0.434,0.819-0.646,1.759-1.098,2.562
		c-0.337,0.603-0.7,0.494-0.806,1.288c-0.14,1.061-0.225,2.128-0.331,3.192c-0.236,0.029-0.359-0.104-0.368-0.399
		c-0.064,0.77-0.064,1.374,0.103,2.132c0.236,1.086-0.235,0.317-0.436-0.082c0,0.562,0,1.125,0,1.687
		c-0.083-0.221-0.164-0.442-0.246-0.664c-0.176,0.222-0.351,0.445-0.524,0.667c0.422,0.081,0.021,1.414-0.035,1.809
		c-0.076-0.023-0.152-0.045-0.229-0.067c-0.016,0.278,0.021,2.255-0.183,2.323c-0.197,0.067-0.347,4.457-0.4,5.013
		c-0.137,1.407-2.34-1.75-2.584-2.044c-1.26-1.515-2.583-2.98-3.886-4.459c-0.73-0.832-1.466-1.664-2.199-2.496
		c-0.318-0.365-1.572-1.111-1.271-0.222c-0.497-0.21-0.994-0.421-1.491-0.631c-0.731-0.31-0.632,0.072-0.964,0.674
		c-0.281-0.405-0.341-1.027-0.871-0.655c-0.461,0.324-0.672,1.041-0.923,1.521c0.473-0.009,0.72,3.374,0.788,3.949
		c0.361,3.088,0.463,6.217,0.067,9.307c-0.061-0.318-0.121-0.636-0.181-0.954c-0.134,0.713-0.479,1.863-0.394,2.576
		c0.053,0.437,0.415,0.716,0.771,0.917c0.499,0.283-1.126-0.175,0.109,0.592c-0.232,0.026-0.468,0.052-0.698,0.078
		c0.106,0.356,0.254,1.124,0.689,1.27c0.676,0.225,0.552,0.03,0.866,0.877c0.094-0.206,0.188-0.412,0.278-0.618
		c0.276,0.655,0.111,0.643,0.889,0.71c0.715,0.062,0.608,0.683,0.738,1.218c1.002-0.555,1.375-0.356,1.399-1.646
		c0.027-1.521,0.052-3.042,0.09-4.563c0.068-2.817,0.062-5.642,0.399-8.44c1.501,1.933,2.938,3.905,4.622,5.686
		c0.854,0.902,1.688,1.816,2.422,2.818c0.502,0.684,0.735,2.158,1.257,2.642C351.876,32.435,352.018,32.337,352.159,32.24
		C352.486,32.675,351.967,32.372,352.159,32.24z M292.719,16.435c1.178,0.875,2.055,1.272,3.581,1.1
		c0.587-0.066,1.251-0.372,1.847-0.299c0.569,0.071,0.34,0.618,0.707,0.839c-0.02-0.012-0.246,3.447-0.215,3.884
		c0.041,0.59,0.254,1.272-0.102,1.791c-0.396,0.577-0.418,0.833-0.418,1.559c0.622-0.03,1.191,0.931,0.41,0.875
		c-0.814-0.059-0.428,0.855-0.258,1.265c-0.269,0.078-0.312-0.164-0.465-0.375c0,0.508,0.258,1.245,0.123,1.708
		c-0.175,0.6-0.41,0.609-0.475,1.284c-0.127,1.383-0.528,2.854-0.854,4.226c0.549-0.173,1.098-0.347,1.646-0.521
		c-0.058,0.788-0.558,2.463,0.204,2.982c0.709,0.485,1.523,0.606,2.354,0.035c2.293-1.582,1.75-5.637,2.02-7.959
		c0.021-0.191,0.179-2.541,0.168-2.537c0.547-0.18,0.226-3.317,0.27-3.951c0.104-1.443,0.186-2.878,0.174-4.327
		c-0.012-1.249-0.099-1.24,1.148-1.346c0.748-0.064,1.497-0.128,2.246-0.192c-0.15-0.11-0.299-0.221-0.449-0.332
		c0.28,0.083,1.219,0.581,1.329,0.207c-0.212-0.065-0.425-0.129-0.637-0.194c1.688-0.215,3.864-0.633,5.511-0.108
		c0.132-0.703,1.225,0.113,1.653,0.176c0.979,0.146,1.896,0.583,1.947-0.553c0.229,0.043,0.454,0.087,0.683,0.13
		c-0.045-1.08,0.829-1.29,1.718-1.376c-0.218-0.094-0.436-0.188-0.653-0.283c0.328-0.108,0.655-0.216,0.983-0.325
		c-0.718-0.611,0.317-0.88,0.627-0.598c-1.145-0.359,0.461-0.471-0.907-0.699c0.623-0.409,0.175-0.423-0.271-0.79
		c1.316-0.209-0.19-0.252-0.531-0.287c0.029-0.353,0.452-0.263,0.764-0.309c-1.128-0.592-1.301-0.334-2.421,0.324
		c0.237,0.038,0.476,0.076,0.711,0.114c-1.184,0.351-1.712,0.776-2.692-0.018c0.292,0.023,0.585,0.046,0.878,0.069
		c-0.478-0.613-0.272-0.65,0.133-1.309c-0.529-0.324-1.396,0.602-1.329,1.161c-0.065-0.215-0.13-0.43-0.194-0.645
		c-0.277,0.323-0.56,0.646-0.839,0.969c-0.177-0.989-1.079-0.107-1.775,0.207c0.127,0.161,0.846,1.368,0.222,0.708
		c-0.188-0.198-1.323,0.111-1.615,0.153c0.026-0.292,0.053-0.583,0.079-0.875c-0.261-0.057-0.356,0.135-0.292,0.576
		c-0.362-0.627-0.845-0.804,0.08-0.974c-0.065-0.43-0.801-0.151-1.143-0.125c0.038,0.25,0.345,1.024,0.003,1.082
		c-0.03-0.111-0.062-0.224-0.092-0.335c-0.391,0.235-0.78,0.47-1.173,0.705c0-0.922-0.003-0.856,0.911-0.948
		c0.043-0.595-1.221-0.282-1.554-0.182c1.066,0.633-0.31,0.474-0.104,0.974c-0.521-0.43-1.085-0.115-1.501-0.678
		c-0.22-0.295-0.812-0.009-1.035-0.325c-0.326-0.463-0.682-0.913-0.924-1.429c-0.455-0.967-1.104-0.464-1.896-0.555
		c-0.654-0.075-0.466-0.872-0.81-1.27c-0.344,0.83-0.604,0.283-1.121,0.992c-0.729,1.004-0.174,2.132-0.715,3.08
		c-0.283,0.499-3.514,0.843-3.812,0.242c-0.055,0.247-1.696,0.375-2.162,0.809c-0.919,0.857-0.688,2.418,0.734,2.197
		C293.006,16.033,292.861,16.234,292.719,16.435C293.165,16.766,292.869,16.224,292.719,16.435z M235.3,32.948
		c0.315,0.374,0.63,0.748,0.945,1.121c0.462,0.547,0.376,0.147,0.969,0.282c0.388,0.088,0.698,0.373,0.923,0.688
		c0.521,0.732,0.297,0.924,1.242,1.004c-0.02,0.397-0.857,0.189-1.163,0.189c0.392,0.939,3.759,0.231,4.546,0.051
		c1.658-0.379,2.738-1.037,4.021-2.128c2.692-2.295,2.437-6.47,2.638-9.672c0.107-1.732,0.128-3.452,0.122-5.187
		c-0.003-0.856,0.042-1.654,0.208-2.496c0.114-0.588-0.143-2.31,0.259-2.644c0.896-0.744,0.452-3.573,0.017-4.5
		c-0.664-1.409-1.918,0.163-2.728-1.385c-0.206,0.593-0.411,1.187-0.616,1.78c-0.095,0.268-0.207,1.586-0.521,0.838
		c-0.186,0.26-0.033,0.609-0.081,0.895c-0.062,0.253-0.228,0.395-0.501,0.425c0.042,0.45,0.066,0.902,0.076,1.354
		c0.045,1.834-0.145,3.667-0.43,5.478c-0.414,2.625,0.211,6.427-1.187,8.775c-0.177,0.295-0.606,0.358-0.392,0.827
		c0.287,0.62,0.062,1.184-0.307,1.7c-0.701,0.981-1.292,2.008-2.58,2.262c-0.367,0.072-0.8,0.748-1.105,0.954
		c-0.479,0.321-1.438-0.078-1.906-0.271c-1.438-0.595-2.02-2.167-2.764-3.416C234.521,30.956,235.702,31.938,235.3,32.948
		C235.779,33.516,235.643,32.088,235.3,32.948z M330.921,11.341c-0.197,0.095-0.63,1.035-0.959,0.688
		c-0.544-0.571-0.84-1.699-1.219-0.264c-0.324,1.228-0.513,2.457-0.619,3.723c-0.111,1.329,0.122,2.583-0.137,3.865
		c1.177,0.364,0.346,0.869,0.472,1.969c0.086,0.79-0.303,1.587-0.562,2.381c0.219-0.167,0.36-0.154,0.435,0.038
		c-0.304,0.274-0.607,0.548-0.911,0.823c0.15,0.046,0.714,0.137,0.697,0.422c-0.024,0.41-0.172,1.037-0.413,0.223
		c-0.051,0.572-0.19,1.637-0.873,1.853c-0.878,0.275,0.09,0.8-0.062,1.329c-0.142,0.494-0.778,1.258-0.337,1.761
		c0.545,0.617,0.518,1.556,0.644,2.396c0.105-0.201,0.135-0.251,0.081-0.151c0.479,0.404,0.964,0.808,1.444,1.212
		c-0.606,0-1.027,0.651-0.26,0.981c0.799,0.343,2.221,0.994,3.043,0.452c0.972-0.64,0.604-2.6,0.614-3.577
		c0.014-1.543,0.146-3.06,0.346-4.59c0.406-3.095,0.879-6.176,1.188-9.283C333.802,14.867,333.726,12.623,330.921,11.341
		C330.986,11.31,331.205,11.471,330.921,11.341z M282.507,34.523c1.179-0.18,2.79-0.405,3.397-1.57c0.684-1.308,0.929-2.664,1-4.12
		c0.099-1.953,0.111-3.572-0.748-5.38c-0.702-1.476-2.051-3.297-2.016-4.986c0.029-1.555,1.17-2.799,2.313-3.712
		c0.853-0.678,2.94-2.394,0.848-3.152c-0.56-0.203-1.192-0.042-1.765,0.001c-0.197-0.813-0.721-0.89-1.473-0.507
		c-0.295,0.15-1.563,0.511-1.604,0.917c-0.039,0.404-0.176,1.802-0.176,0.281c-1.008,0.443-0.072,0.816-0.1,1.464
		c-0.818,0.478-1.135,0.637-1.435,1.604c-0.228,0.728-0.823,1.563-0.289,2.287c0.492,0.666-0.885,0.886,0.132,1.338
		c-0.183,0-0.355,0.037-0.523,0.112c0.418,1.037,0.09,2.384,0.898,3.259c0.543,0.586,0.635,1.303,0.854,2.086
		c0.241,0.856,0.552,1.073-0.302,1.428c0.554,1.494,0.103,2.959-0.488,4.359c-0.285,0.676-0.825,1.289-0.283,1.874
		c0.508,0.548,0.523,0.879,1.202,0.527C282.141,33.263,282.323,33.893,282.507,34.523C282.82,34.475,282.32,33.884,282.507,34.523z
		 M368.289,10.521c-0.999,0.255-0.996-0.719-1.238-1.394c-0.791,0.98-1.454,1.679-1.476,3.037c-0.029,1.786,0.126,3.467-0.104,5.277
		c-0.217,1.694-0.378,3.395-0.536,5.095c-0.053,0.57,0.425,2.946,1.294,1.946c-0.094,0.819-0.311,1.53,0.15,2.286
		c0.438,0.718,1.682,0.783,2.359,0.381c1.86-1.104,1.236-2.999,1.472-4.784c0.301-2.332,0.645-4.574,0.745-6.94
		c0.052-1.225,0.212-2.565-0.178-3.752c-0.339-1.031-1.366-1.552-2.232-2.071C368.46,9.907,368.374,10.213,368.289,10.521
		C367.241,10.788,368.366,10.241,368.289,10.521z M367.933,38.028c0.532-0.451,1.564-1.045,1.695-1.801
		c0.102-0.569,0.273-1.939-0.563-2.099c-1.486-0.284-2.781-2.066-4.476-0.791c-0.482,0.365-1.071,0.988-0.764,1.641
		c0.132,0.215,0.313,0.369,0.55,0.463c0.272,0.294-0.106,0.671,0.022,0.997c0.16,0.218,0.374,0.26,0.636,0.127
		c0.172,0.355,0.417,0.776,0.819,0.908C366.827,37.79,367.258,36.83,367.933,38.028C368.37,37.657,367.604,37.446,367.933,38.028z"
		/>
	<path d="M352.159,32.24c-0.144,0.097-0.283,0.194-0.424,0.292c-0.521-0.484-0.753-1.958-1.255-2.642
		c-0.736-1.002-1.568-1.917-2.424-2.818c-1.686-1.781-3.121-3.753-4.622-5.688c-0.312,2.582-0.316,5.179-0.385,7.778
		c-0.039,1.526-0.07,3.052-0.095,4.578c-0.027,1.69-0.086,1.56-1.411,2.293c-0.072-0.297-0.045-0.848-0.298-1.079
		c-0.646-0.588-0.926,0.105-1.329-0.849c-0.093,0.206-0.185,0.413-0.278,0.618c-0.314-0.847-0.19-0.652-0.866-0.877
		c-0.438-0.146-0.581-0.914-0.689-1.27c0.23-0.026,0.466-0.052,0.698-0.078c-0.629-0.215-0.639-0.372-0.023-0.473
		c-0.208-0.296-0.561-0.371-0.748-0.703c-0.354-0.627,0.157-2.235,0.284-2.91c0.06,0.318,0.12,0.636,0.181,0.954
		c0.396-3.09,0.294-6.219-0.067-9.307c-0.068-0.576-0.315-3.958-0.788-3.949c0.228-0.435,0.431-0.883,0.689-1.299
		c0.498-0.794,0.766-0.054,1.104,0.433c0.332-0.603,0.23-0.984,0.964-0.674c0.497,0.21,0.994,0.421,1.491,0.631
		c-0.271-0.797,0.401-0.279,0.896-0.054c0.824,0.375,1.547,1.604,2.138,2.272c1.318,1.498,2.637,2.997,3.941,4.507
		c0.344,0.398,2.436,3.47,2.872,2.752c0.409-0.667,0.085-5.131,0.494-5.27c0.202-0.068,0.167-2.045,0.183-2.323
		c0.076,0.022,0.152,0.044,0.229,0.067c0.056-0.395,0.457-1.728,0.035-1.809c0.176-0.222,0.351-0.445,0.524-0.667
		c0.082,0.221,0.163,0.442,0.246,0.664c0-0.562,0-1.125,0-1.687c0.198,0.399,0.672,1.168,0.436,0.082
		c-0.167-0.759-0.167-1.362-0.103-2.132c0.009,0.295,0.132,0.428,0.368,0.399c0.09-0.899-0.164-3.881,0.911-4.251
		c0.492-0.17,0.868-1.805,1.047-2.214c0.349-0.799,0.844-1.2,1.148-2.054c0.396,0.174,0.637,0.521,0.841,0.025
		c0.139,0.178,0.274,0.357,0.415,0.536c0.187-0.247,0.357-0.5,0.521-0.764c0.241-0.515-0.333-0.71-0.077-1.191
		c0.04-0.406,0.191-0.521,0.455-0.344c-0.029,0.71,0.104,0.532,0.732,0.661c-0.267,0.184-0.822,0.355-0.667,0.708
		c0.604-0.177,0.938-0.423,1.43,0.054c0.468,0.455,0.006,1.733-0.366,2.121c-1.079,1.121-0.924,2.633-1.319,4.093
		c-0.155,0.571,0.216,0.871-0.056,1.477c-0.376,0.842-0.153,1.332-0.193,2.225c-0.045,0.978-0.416,1.898-0.755,2.804
		c-0.366,0.981-0.312,2.074-0.768,3.022c-0.757,1.583-0.436,4.33-0.535,6.073c-0.123,2.15-0.085,4.28-0.104,6.431
		c-0.009,0.909,0.087,3.612-1.691,3.119c-0.472-0.13-1.59,0.023-1.877-0.452C352.835,33.445,352.634,32.872,352.159,32.24
		C351.967,32.372,352.486,32.675,352.159,32.24z"/>
	<path d="M268.182,28.904c-0.127-0.748-0.256-1.495-0.383-2.243c0.959,0.121,0.725-0.581,0.229-1.119
		c-0.105,0.204-0.213,0.407-0.319,0.61c0-1.798-0.446-0.391-1.216,0.316c-0.723,0.661-1.495,1.285-2.094,2.066
		c-1.223,1.599-3.06,3.087-5.272,2.785c-2.075-0.283-2.222-2.821-2.997-4.413c-0.521-1.07-0.199-2.24-0.141-3.364
		c0.035-0.646,0.09-1.291,0.113-1.936c0.008-0.2,0.287-2.05-0.168-0.884c0-0.382,0-0.765,0-1.146
		c0.694,0.28,0.437-3.337,0.272-3.697c-0.331-0.736-0.185-2.391-0.202-3.214c-0.027-1.235,0.355-1.839,0.919-2.877
		c0.229,0.81,0.069,1.396,0.999,1.262c0.348-0.05,1.283-0.382,1.549,0.034c0.98,1.542,1.188,2.513,1.104,4.341
		c-0.152,3.259-0.525,7.288,0.361,10.441c0.475-0.428,0.945-0.855,1.42-1.283c0,0.211,0,0.422,0,0.634
		c1.271-1.022,4.285-1.41,4.021-3.528c-0.236,0.292-0.472,0.583-0.708,0.875c0.253-1.391,1.978-2.295,1.17-3.831
		c0.019,0.36-0.013,0.717-0.094,1.071c-0.62-0.202-0.271-1.028-0.243-1.54c0.367,0.057,0.734,0.115,1.102,0.172
		c0.114-1.074,0.41-1.792,0.229-3.009c-0.222-1.496,0.333-2.724,1.101-3.961c0.139,0.531,0.275,1.062,0.416,1.592
		c0.918-0.482,0.889-0.574,1.469,0.291c0.252-0.426,0.504-0.851,0.756-1.277c0.689,0.824,1.475,1.704,1.402,2.857
		c-0.096,1.504-0.386,2.859-0.305,4.39c0.152,2.819,0.604,5.627,0.986,8.422c0.174,1.263,0.521,2.621,0.484,3.898
		c-0.021,0.817-0.369,2.733-1.236,3.074c-0.73,0.286-1.67,0.388-2.354-0.046c-0.774-0.491-0.532-1.458-0.856-2.204
		c0,0.349,0,0.699,0,1.049c-0.48,0.099-0.131-1.321-0.559-0.35c-0.082-0.424-0.162-0.847-0.244-1.271
		c-0.103,0.23-0.097,0.439-0.354,0.454c0-0.364,0.229-0.835,0.224-1.133c-0.011-0.443-0.543-0.635-0.611-1.07
		c-0.084-0.507,0.459-0.589,0.459-1.236c0-0.388,0.199-1.751-0.188-1.848C268.102,27.729,268.134,28.151,268.182,28.904
		C268.05,28.133,268.156,28.508,268.182,28.904z"/>
	<path d="M292.719,16.435c0.145-0.201,0.287-0.402,0.432-0.604c-0.682,0.105-0.739,0.308-1.094-0.421
		c-0.201-0.414-0.442-1.085-0.005-1.449c0.472-0.391,0.868-0.93,1.536-0.951c0.389-0.012,0.887,0.275,0.987-0.184
		c0.301,0.601,3.53,0.257,3.813-0.242c0.439-0.773-0.047-1.801,0.42-2.629c0.516-0.921,1.086-0.645,1.416-1.442
		c0.307,0.355,0.146,0.962,0.558,1.194c0.634,0.359,1.347-0.388,1.923,0.277c0.669,0.772,0.729,1.832,1.882,1.987
		c0.418,0.057,0.495,0.504,0.938,0.509c0.611,0.008,0.375-0.115,0.863,0.289c-0.205-0.5,1.171-0.341,0.104-0.974
		c0.333-0.1,1.597-0.413,1.554,0.182c-0.914,0.091-0.911,0.026-0.911,0.948c0.393-0.235,0.782-0.47,1.173-0.705
		c0.03,0.111,0.062,0.224,0.092,0.335c0.342-0.058,0.035-0.833-0.003-1.082c0.342-0.025,1.075-0.305,1.143,0.125
		c-0.925,0.169-0.442,0.346-0.08,0.974c-0.065-0.441,0.031-0.633,0.292-0.576c-0.026,0.292-0.053,0.583-0.079,0.875
		c0.292-0.042,1.427-0.352,1.615-0.153c0.624,0.659-0.095-0.548-0.223-0.708c0.697-0.314,1.602-1.196,1.776-0.207
		c0.279-0.323,0.562-0.646,0.839-0.969c0.064,0.215,0.129,0.429,0.194,0.645c-0.065-0.559,0.8-1.485,1.329-1.161
		c-0.405,0.659-0.608,0.696-0.133,1.309c-0.293-0.023-0.586-0.046-0.878-0.069c0.98,0.794,1.511,0.369,2.692,0.018
		c-0.235-0.038-0.474-0.076-0.711-0.114c1.12-0.658,1.293-0.916,2.421-0.324c-0.312,0.046-0.732-0.043-0.764,0.309
		c0.341,0.035,1.85,0.078,0.531,0.287c0.443,0.366,0.894,0.38,0.271,0.79c1.368,0.228-0.235,0.34,0.907,0.699
		c-0.31-0.282-1.345-0.014-0.627,0.598c-0.328,0.108-0.655,0.216-0.983,0.325c0.22,0.095,0.438,0.189,0.653,0.283
		c-0.889,0.086-1.763,0.296-1.718,1.376c-0.229-0.043-0.453-0.087-0.683-0.13c-0.044,0.976-0.463,0.75-1.367,0.633
		c-0.281-0.036-1.975-0.661-2.098-0.559c-0.371,0.309-1.587,0.12-2.328,0.209c-1.101,0.133-2.194,0.058-3.318,0.201
		c0.212,0.065,0.425,0.129,0.637,0.194c-0.11,0.374-1.049-0.124-1.329-0.207c0.15,0.111,0.299,0.221,0.449,0.332
		c-0.563,0.048-1.127,0.096-1.69,0.145c-0.865,0.074-1.719-0.239-1.711,0.772c0.014,1.448-0.019,2.883-0.121,4.328
		c-0.084,1.194-0.443,2.887-0.051,4.037c0.035,0.102-0.167,1.01-0.216,1.227c-0.106,0.482-0.129,0.987-0.179,1.477
		c-0.239,2.418,0.234,6.036-1.66,7.978c-0.592,0.606-1.733,0.94-2.387,0.532c-1.156-0.726-0.651-1.998-0.566-3.2
		c-0.55,0.173-1.1,0.347-1.646,0.521c0.297-1.251,0.528-2.45,0.775-3.68c0.116-0.577,0.278-0.985,0.43-1.462
		c0.228-0.719-0.002-1.327-0.002-2.076c0.152,0.211,0.198,0.453,0.467,0.375c-0.172-0.409-0.559-1.324,0.258-1.265
		c0.781,0.056,0.212-0.905-0.41-0.875c0-1.09,0.636-1.585,0.566-2.645c-0.033-0.491,0.119-4.618,0.166-4.589
		c-0.272-0.165-0.147-0.554-0.439-0.746c-0.415-0.273-1.119,0.041-1.533,0.118C295.161,17.77,294.068,17.438,292.719,16.435
		C292.869,16.224,293.165,16.766,292.719,16.435z"/>
	<path d="M235.3,32.948c0.402-1.01-0.778-1.992-0.315-3.076c1.113,1.873,3.265,5.45,5.604,2.857
		c0.647-0.718,1.688-0.672,2.269-1.691c0.281-0.496,0.735-0.896,0.888-1.464c0.067-0.253-0.323-1.373-0.024-1.495
		c0.725-0.294,0.993-2.577,1.038-3.24c0.116-1.722,0.146-3.429,0.373-5.145c0.239-1.817,0.519-3.612,0.529-5.451
		c0.005-0.863-0.271-1.673,0.286-2.202c0.328-0.312-0.033-0.808,0.213-1.153c0.314,0.748,0.429-0.571,0.521-0.838
		c0.205-0.593,0.41-1.187,0.616-1.78c0.789,1.514,1.737,0.064,2.53,1.065c0.953,1.204,0.613,3.273,0.322,4.622
		c-0.066,0.135-0.168,0.24-0.297,0.315c0.006,0.433,0.012,0.865,0.016,1.297c-0.01,1.047-0.314,2.046-0.325,3.096
		c-0.021,1.944-0.003,3.873-0.124,5.815c-0.188,3.005,0.085,7.049-2.271,9.343c-1.106,1.076-2.26,1.908-3.76,2.303
		c-0.855,0.225-4.727,1.168-5.17,0.103c0.305,0,1.145,0.208,1.162-0.189c-0.695-0.059-0.674,0.083-0.994-0.581
		c-0.188-0.387-0.459-0.768-0.843-0.982c-0.312-0.175-0.674-0.205-1.004-0.064C236.125,33.926,235.712,33.437,235.3,32.948
		C235.643,32.088,235.779,33.516,235.3,32.948z"/>
	<path d="M330.921,11.341c2.498,1.142,2.908,3.092,2.672,5.61c-0.291,3.095-0.734,6.167-1.159,9.246
		c-0.213,1.539-0.399,3.076-0.43,4.63c-0.02,1.066,0.358,3.073-0.347,3.963c-0.736,0.93-1.967,0.204-2.841-0.039
		c-0.77-0.212-1.318-1.142-0.22-1.142c-0.48-0.404-0.965-0.808-1.444-1.212c0.054-0.1,0.024-0.049-0.081,0.151
		c-0.126-0.841-0.099-1.779-0.644-2.396c-0.441-0.503,0.195-1.267,0.337-1.761c0.152-0.529-0.813-1.054,0.062-1.329
		c0.683-0.215,0.822-1.28,0.873-1.853c0.241,0.813,0.389,0.187,0.413-0.223c0.017-0.285-0.547-0.376-0.697-0.422
		c0.304-0.275,0.607-0.549,0.911-0.823c-0.072-0.192-0.216-0.205-0.435-0.038c0.262-0.793,0.648-1.591,0.562-2.381
		c-0.126-1.1,0.705-1.605-0.472-1.969c0.458-2.27,0.021-4.679,0.611-7.038c0.278-1.11,0.463-1.74,1.185-0.538
		C330.262,12.575,330.474,11.556,330.921,11.341C331.205,11.471,330.986,11.31,330.921,11.341z"/>
	<path d="M282.507,34.523c-0.184-0.63-0.366-1.26-0.551-1.89c-0.679,0.353-0.694,0.021-1.202-0.527
		c-0.542-0.585-0.002-1.198,0.283-1.874c0.591-1.399,1.042-2.865,0.488-4.359c0.854-0.354,0.543-0.572,0.302-1.428
		c-0.22-0.784-0.312-1.5-0.854-2.086c-0.811-0.875-0.479-2.222-0.897-3.259c0.167-0.075,0.342-0.112,0.522-0.112
		c-0.771-0.343-0.168-0.411-0.089-1.027c-0.004-0.272-0.09-0.52-0.257-0.742c-0.119-0.479,0.199-0.928,0.346-1.359
		c0.271-0.802,0.369-1.537,1.205-1.913c0.977-0.438-0.719-1.123,0.484-1.652c0,1.36,0.445,0.398,0.291,0.112
		c-0.383-0.713,0.494-0.798,0.954-1.031c0.674-0.342,1.133-0.716,1.858-0.312c0.094,0.167,0.143,0.347,0.146,0.541
		c0.438-0.033,0.871-0.105,1.312-0.089c2.242,0.079,1.004,2.143,0.051,2.889c-1.295,1.013-2.726,2.275-2.762,4.063
		c-0.031,1.516,1.104,3.125,1.75,4.44c0.873,1.771,1.25,3.404,1.053,5.385c-0.153,1.56-0.283,2.825-0.873,4.293
		C285.494,34.031,283.902,34.31,282.507,34.523C282.32,33.884,282.82,34.475,282.507,34.523z"/>
	<path d="M368.289,10.521c0.085-0.307,0.171-0.614,0.256-0.92c2.225,1.334,2.53,2.636,2.438,5.181
		c-0.089,2.343-0.18,4.674-0.664,6.969c-0.352,1.652,0.413,3.967-1.198,5.142c-0.58,0.424-1.862,0.846-2.488,0.204
		c-0.751-0.77-0.511-1.668-0.4-2.615c-0.604,0.694-1.407-0.693-1.353-1.326c0.151-1.675,0.292-3.356,0.504-5.025
		c0.213-1.686,0.66-3.707,0.257-5.387c-0.362-1.515,0.558-2.554,1.412-3.616C367.293,9.802,367.29,10.776,368.289,10.521
		C368.366,10.241,367.241,10.788,368.289,10.521z"/>
	<path d="M367.933,38.028c-0.528-0.941-0.822-0.604-1.724-0.519c-0.25,0.023-0.471-0.047-0.661-0.21
		c-0.525-0.444-0.281-0.548-0.928-0.682c-0.574-0.119,0.162-1.081-0.562-1.365c-0.946-0.372,0.166-1.639,0.531-1.915
		c0.667-0.503,1.546-0.546,2.322-0.281c0.321,0.11,1.751,1.176,1.938,1.088c0.809-0.376,0.855,1.224,0.835,1.578
		C369.623,36.833,368.71,37.37,367.933,38.028C367.604,37.446,368.37,37.657,367.933,38.028z"/>
	<path fill="#FFFFFF" d="M268.182,28.904c-0.048-0.752-0.08-1.175,0.239-1.846c0.399,0.1,0.188,2.005,0.188,2.448
		C268.466,29.305,268.324,29.104,268.182,28.904C268.156,28.508,268.324,29.104,268.182,28.904z"/>
</g>
<g>
	<path fill="none" stroke="#808080" stroke-linecap="round" stroke-linejoin="round" stroke-miterlimit="3" d="M237.786,819.203
		l9.446-9.447 M247.232,809.756l-9.559-9.559"/>
	<path fill="none" stroke="#808080" stroke-linecap="round" stroke-linejoin="round" stroke-miterlimit="3" d="M256.682,800.197
		l-9.447,9.447 M247.232,809.645l9.562,9.56"/>
</g>
<g>
	<path fill="#FFFFFF" d="M0,924.834h16.998v12H0V924.834z M0.999,935.835h15v-10.002h-15V935.835z M3,921.834h16.998v12h-3.999
		v-8.001L3,925.834V921.834z M17,932.835h2v-10.002h-15v2.001h12.999L17,932.835z"/>
	<path fill="#FFFFFF" d="M6,918.834h16.998v12h-3.999v-8.001H6V918.834z M19.998,929.835h2.001v-10.002h-15v2l12.999,0.001V929.835z
		"/>
</g>
</svg>
